<?xml version="1.0" ?><svg height="64" viewBox="0 0 64 64" width="64" xmlns="http://www.w3.org/2000/svg"><defs><style>.cls-1{fill:none;stroke:#000;stroke-linejoin:round;stroke-width:2px;}</style></defs><title/><g data-name="11-Shopping" id="_11-Shopping"><path class="cls-1" d="M40,63H59a4,4,0,0,0,4-4V13H17V25"/><path class="cls-1" d="M52,23V5a4,4,0,0,0-4-4H32a4,4,0,0,0-4,4V23"/><line class="cls-1" x1="17" x2="63" y1="19" y2="19"/><path class="cls-1" d="M26,25a2,2,0,0,1,4,0"/><circle class="cls-1" cx="52" cy="25" r="2"/><rect class="cls-1" height="6" width="40" x="1" y="35"/><path class="cls-1" d="M4,41V61a2,2,0,0,0,2,2H36a2,2,0,0,0,2-2V41"/><line class="cls-1" x1="15" x2="15" y1="35" y2="41"/><line class="cls-1" x1="27" x2="27" y1="35" y2="41"/><line class="cls-1" x1="25" x2="25" y1="41" y2="63"/><line class="cls-1" x1="17" x2="17" y1="41" y2="63"/><line class="cls-1" x1="4" x2="14" y1="45" y2="45"/><line class="cls-1" x1="28" x2="38" y1="45" y2="45"/><path class="cls-1" d="M21,35V31a2.938,2.938,0,0,0-3-3H11S12,35,21,35Z"/><path class="cls-1" d="M21,35V31a2.938,2.938,0,0,1,3-3h7S30,35,21,35Z"/><path class="cls-1" d="M59,54v3a1.959,1.959,0,0,1-2,2H54"/><polyline class="cls-1" points="34 55 34 59 30 59"/></g></svg>