<?xml version="1.0" standalone="no"?>
<!DOCTYPE svg PUBLIC "-//W3C//DTD SVG 20010904//EN"
 "http://www.w3.org/TR/2001/REC-SVG-20010904/DTD/svg10.dtd">
<svg version="1.0" xmlns="http://www.w3.org/2000/svg"
 width="1280.000000pt" height="960.000000pt" viewBox="0 0 1280.000000 960.000000"
 preserveAspectRatio="xMidYMid meet">
<metadata>
Created by potrace 1.15, written by Peter Selinger 2001-2017
</metadata>
<g transform="translate(0.000000,960.000000) scale(0.100000,-0.100000)"
fill="#d1e6ef" stroke="none">
<path d="M4460 9582 c0 -27 -33 -54 -56 -46 -14 4 -12 -1 9 -20 25 -23 27 -30
23 -83 -2 -32 -6 -76 -10 -98 l-6 -40 11 35 c6 19 13 42 16 50 4 12 6 12 14
-3 7 -11 9 -125 7 -307 -2 -158 0 -287 3 -284 7 4 20 182 23 304 1 78 3 85 21
85 41 1 49 16 21 42 -31 28 -36 81 -8 89 9 3 25 10 36 15 14 8 23 6 41 -11 19
-18 34 -22 82 -20 79 3 83 2 83 -16 0 -8 -16 -22 -35 -30 -33 -13 -52 -30 -21
-18 8 3 20 -3 27 -13 8 -11 22 -22 32 -26 23 -9 22 -24 -4 -32 -12 -4 -17 -10
-12 -14 6 -3 13 -16 17 -28 4 -13 12 -23 18 -23 6 0 5 -7 -3 -16 -8 -9 -12
-28 -10 -42 1 -13 -3 -29 -11 -33 -9 -6 -9 -9 -1 -9 9 0 11 -44 7 -180 -3 -99
-3 -180 0 -180 21 0 48 146 46 253 -1 26 3 47 7 47 5 0 6 21 4 46 -3 44 -2 47
18 41 14 -3 21 0 21 8 0 8 -12 15 -27 17 -26 3 -29 7 -36 63 -6 38 -5 80 2
114 14 68 14 218 1 226 -5 3 -10 40 -10 81 0 61 -3 74 -16 74 -12 0 -15 -6
-10 -25 4 -14 2 -25 -3 -25 -6 0 -7 -15 -4 -35 4 -26 2 -35 -8 -35 -10 -1 -8
-5 5 -15 25 -19 16 -29 -49 -55 -45 -18 -53 -25 -44 -36 6 -8 8 -25 5 -39 -9
-34 -51 -34 -87 1 -27 26 -27 26 -38 5 -7 -12 -16 -21 -21 -21 -11 0 6 61 19
69 5 3 11 19 13 35 2 24 9 31 35 38 44 11 49 25 19 49 -28 22 -36 69 -12 69 8
0 18 5 21 10 4 6 -25 10 -79 10 -77 0 -86 -2 -86 -18z"/>
<path d="M5046 9578 c-3 -13 -6 -41 -6 -63 0 -68 -9 -85 -41 -85 -33 0 -48 22
-30 44 10 12 8 13 -8 9 -12 -3 -21 -1 -21 6 0 6 -9 11 -20 11 -19 0 -19 -1 1
-47 27 -64 35 -70 58 -49 24 22 51 15 51 -13 0 -11 9 -21 21 -24 17 -5 20 -13
19 -49 -2 -61 8 -88 34 -88 44 0 59 -39 29 -72 -11 -13 -12 -18 -3 -18 9 0 11
-11 5 -42 -4 -24 -7 -55 -6 -70 0 -17 -5 -28 -13 -28 -10 0 -12 -13 -8 -48 3
-37 0 -53 -13 -65 -15 -16 -15 -17 5 -17 16 0 20 -4 16 -16 -3 -9 -6 -37 -6
-64 0 -31 -6 -54 -16 -64 -9 -9 -11 -16 -4 -16 7 0 10 -21 8 -62 l-3 -62 -37
-11 c-20 -6 -43 -16 -50 -24 -11 -11 -9 -12 9 -2 27 14 73 15 73 1 0 -5 -11
-12 -25 -16 -42 -10 -51 -31 -24 -54 13 -10 29 -19 36 -20 18 0 33 -35 29 -67
-2 -15 -1 -19 1 -8 4 17 8 15 23 -15 l18 -35 11 28 c6 16 18 27 30 27 16 0 20
-10 26 -80 6 -65 11 -82 27 -91 18 -10 18 -9 8 11 -14 26 -5 54 15 47 9 -4 12
-1 9 8 -3 7 -1 114 6 237 6 122 13 296 17 385 7 175 10 186 63 196 21 4 20 4
-7 6 -32 1 -33 2 -33 44 0 74 20 411 26 430 5 16 -6 17 -144 17 -147 0 -150 0
-156 -22z"/>
<path d="M5877 9578 c-3 -13 -11 -62 -17 -110 -12 -98 -17 -118 -32 -118 -6 0
-5 -6 2 -15 15 -18 8 -79 -61 -510 -64 -398 -64 -397 -92 -393 -32 4 -48 -10
-41 -36 4 -18 1 -25 -18 -30 -21 -6 -21 -7 -5 -17 29 -17 22 -40 -10 -33 -16
4 -32 9 -38 12 -5 3 -23 6 -39 6 -40 1 -51 36 -12 36 15 0 30 8 36 20 14 27
-3 26 -54 0 -32 -18 -43 -19 -72 -10 -19 7 -32 15 -30 19 3 4 -4 12 -14 19
-24 15 -33 2 -35 -47 -1 -20 -5 -70 -10 -112 -6 -63 -5 -78 9 -91 9 -9 16 -21
16 -27 0 -6 5 -11 10 -11 6 0 10 -9 10 -20 0 -11 5 -20 11 -20 13 0 38 -29 76
-87 26 -42 43 -54 43 -32 0 16 -22 53 -36 62 -8 4 -14 14 -14 21 0 13 61 76
74 76 4 0 17 11 28 25 28 36 38 31 39 -17 1 -24 4 -33 6 -20 3 12 12 22 21 22
20 0 23 41 5 59 -8 7 -13 8 -13 1 0 -5 -7 -10 -15 -10 -20 0 -19 19 2 43 17
18 17 19 -1 32 -23 17 -12 36 17 31 14 -2 23 -11 26 -27 3 -22 17 -38 33 -39
4 0 10 17 13 38 14 86 14 85 45 78 27 -5 30 -3 30 19 0 14 -5 25 -10 25 -6 0
-8 15 -4 40 4 27 3 40 -5 40 -24 0 -12 129 34 375 23 120 52 311 75 485 11 85
24 181 29 213 7 55 -1 80 -12 35z"/>
<path d="M7198 9588 c7 -7 12 -30 12 -51 0 -31 -4 -40 -21 -44 -21 -6 -21 -7
-3 -20 16 -12 17 -16 5 -34 -10 -17 -10 -20 0 -17 7 2 17 19 22 38 6 24 11 30
20 21 8 -8 8 -31 -2 -88 -7 -43 -16 -82 -19 -87 -7 -12 -12 -59 -12 -107 0
-23 -7 -42 -20 -54 -11 -10 -20 -24 -20 -32 0 -7 -5 -13 -12 -13 -6 0 -3 -9 7
-20 10 -11 16 -21 14 -23 -2 -2 -26 -14 -54 -27 -34 -17 -51 -33 -55 -50 -3
-14 -14 -26 -23 -28 -24 -5 -22 39 3 113 11 32 20 61 20 65 0 6 -28 17 -50 20
-3 0 -7 -16 -10 -37 -4 -29 -10 -38 -30 -43 -22 -6 -25 -11 -23 -48 2 -50 -9
-54 -27 -11 -9 22 -15 27 -21 17 -5 -7 -4 -14 1 -16 6 -2 10 -12 10 -22 0 -10
9 -21 19 -25 14 -4 22 -19 27 -51 7 -52 1 -63 -23 -42 -27 23 -79 48 -102 48
-18 0 -19 -3 -11 -26 12 -31 13 -74 2 -74 -5 0 -18 9 -30 20 -12 12 -22 16
-22 10 0 -20 -21 -9 -31 16 -13 37 -20 26 -35 -62 -7 -42 -15 -77 -16 -78 -2
-1 -13 -7 -25 -13 -38 -22 -61 -16 -68 16 -9 42 -33 48 -30 8 1 -18 5 -40 9
-49 4 -9 2 -26 -4 -39 -7 -12 -14 -68 -16 -123 -6 -144 -10 -158 -44 -181 -24
-16 -30 -27 -30 -55 0 -40 -12 -64 -30 -58 -19 6 -50 107 -51 168 -1 46 -3 50
-9 25 -24 -94 -1 -207 45 -225 20 -8 25 -16 25 -46 0 -38 -27 -94 -46 -94 -6
0 -16 10 -22 23 -8 16 -11 17 -11 6 -1 -9 6 -22 14 -29 8 -7 15 -28 15 -47 0
-26 5 -36 20 -40 24 -6 25 -21 5 -59 -18 -35 -19 -76 -3 -92 8 -8 8 -15 -2
-27 -10 -12 -10 -19 -2 -27 20 -20 49 18 54 71 5 49 33 100 56 101 10 0 12
-15 6 -69 -6 -64 -5 -69 17 -84 27 -19 25 -22 -21 -35 l-35 -10 38 -1 c20 -1
37 -5 37 -11 0 -5 -5 -10 -10 -10 -6 0 -20 -11 -32 -25 -22 -26 -62 -33 -74
-14 -3 6 -1 16 5 22 17 17 13 31 -4 17 -17 -14 -20 -60 -4 -60 8 0 8 -4 1 -13
-6 -7 -9 -22 -6 -33 7 -26 82 -48 102 -31 11 9 17 7 28 -8 14 -19 15 -19 21 3
8 31 47 26 51 -5 2 -13 8 -23 13 -23 5 0 9 -9 9 -20 0 -16 -7 -20 -30 -20 -16
0 -30 5 -30 10 0 6 -4 10 -9 10 -5 0 -4 -15 2 -35 7 -24 16 -35 29 -35 26 0
68 -44 68 -73 0 -51 -47 -63 -76 -19 -19 29 -46 53 -53 46 -2 -2 4 -13 14 -24
14 -16 16 -23 7 -32 -7 -7 -12 -21 -12 -31 0 -14 -5 -17 -16 -13 -15 6 -15 4
0 -18 9 -14 16 -30 16 -35 0 -12 -43 -10 -52 3 -3 5 -21 -3 -39 -18 l-33 -28
-22 27 c-26 33 -36 31 -66 -15 -13 -19 -34 -36 -46 -38 -28 -4 -29 17 -2 50
l19 25 -34 11 c-34 10 -51 0 -20 -12 23 -9 18 -25 -12 -37 -16 -7 -38 -16 -50
-22 -30 -13 -41 -2 -24 25 9 15 10 23 1 28 -8 5 -6 26 9 78 12 44 17 86 14
108 -3 19 -1 52 6 72 11 35 39 386 48 598 4 90 2 107 -18 149 -19 41 -21 51
-10 81 7 19 9 38 6 44 -8 14 -38 13 -67 -3 l-25 -13 18 -34 c11 -19 19 -40 19
-47 0 -17 -20 -27 -32 -15 -14 14 -48 -17 -48 -45 0 -14 6 -23 15 -23 21 0 34
-31 24 -57 -5 -13 -12 -23 -16 -23 -5 0 -14 -10 -22 -21 l-13 -22 30 22 c37
26 42 26 42 2 0 -11 4 -21 10 -23 5 -1 12 -33 16 -69 l6 -66 -55 -26 c-49 -24
-55 -30 -59 -61 -4 -32 -2 -34 12 -21 9 8 26 15 38 15 20 0 22 -4 16 -40 -5
-31 -3 -41 10 -46 20 -8 21 -24 1 -24 -9 0 -15 -9 -14 -22 1 -17 2 -19 6 -5 2
9 9 17 14 17 15 0 10 -94 -7 -118 -10 -15 -11 -22 -3 -22 16 0 6 -113 -10
-118 -18 -6 -71 -60 -71 -72 0 -5 -9 -15 -20 -22 -18 -12 -18 -13 -3 -31 16
-17 15 -19 -12 -42 -17 -14 -45 -30 -62 -37 -18 -7 -33 -16 -33 -20 0 -4 -6
-8 -14 -8 -8 0 -16 -5 -18 -12 -6 -16 -126 10 -137 30 -7 12 -9 12 -14 -1 -7
-19 12 -36 50 -46 30 -8 42 -36 23 -55 -8 -8 -15 -6 -27 9 -15 19 -15 18 -9
-14 3 -19 13 -39 22 -46 14 -9 14 -16 5 -33 -6 -12 -17 -22 -24 -22 -7 -1 0
-8 16 -16 22 -12 27 -22 27 -52 0 -21 9 -55 20 -77 26 -50 25 -70 -2 -89 -22
-16 -16 -20 23 -17 11 1 26 -21 47 -69 18 -38 32 -75 32 -80 0 -24 -17 -6 -45
48 l-30 57 -3 -43 c-4 -57 -24 -50 -36 11 -10 49 -26 64 -26 24 0 -22 14 -113
26 -165 2 -13 8 -20 13 -18 11 7 21 -28 21 -74 0 -19 16 -69 37 -112 20 -43
33 -81 29 -85 -4 -4 -22 10 -41 32 -38 45 -55 41 -37 -9 7 -19 10 -51 6 -73
-5 -34 -2 -43 25 -72 17 -18 31 -36 31 -40 0 -4 11 -13 25 -19 34 -16 36 -62
3 -62 -13 0 -32 7 -42 15 -51 39 -47 2 5 -51 44 -44 44 -64 3 -64 -25 0 -26
-2 -22 -55 4 -63 -11 -73 -29 -18 -11 34 -12 25 -7 -73 6 -113 -1 -184 -17
-184 -5 0 -9 16 -9 35 0 19 -9 58 -20 87 -24 63 -25 72 -5 64 12 -4 15 5 15
52 0 31 -5 64 -10 72 -7 11 -10 0 -10 -38 0 -38 -4 -54 -15 -58 -21 -8 -45 14
-45 40 0 11 -4 27 -9 34 -18 30 -19 -29 0 -65 25 -50 24 -61 -6 -55 -17 3 -27
13 -31 31 -18 79 -21 86 -37 83 -11 -2 -17 4 -17 17 0 11 -5 23 -12 27 -8 5
-9 -2 -5 -24 5 -22 2 -32 -10 -36 -12 -5 -14 -15 -8 -52 6 -41 4 -46 -14 -51
-12 -3 -21 -12 -21 -21 0 -12 5 -11 23 6 30 29 39 28 32 -3 -3 -14 -7 -36 -10
-50 -6 -27 -25 -35 -25 -9 0 8 -5 12 -11 9 -7 -5 -8 -25 -4 -55 7 -52 -1 -94
-16 -85 -5 4 -9 16 -9 28 0 18 -2 19 -10 7 -6 -8 -7 -28 -4 -43 5 -22 2 -29
-13 -33 -19 -6 -79 -94 -63 -94 15 0 12 -40 -4 -46 -9 -3 -12 -19 -11 -47 2
-23 -3 -62 -10 -87 -42 -147 -62 -203 -101 -278 -24 -46 -42 -88 -38 -93 6
-10 87 -12 120 -3 19 5 22 16 29 87 8 92 28 155 73 220 24 36 27 47 16 51 -10
4 -14 24 -14 71 0 37 -4 65 -10 65 -5 0 -10 9 -10 20 0 13 7 20 20 20 15 0 23
-12 35 -55 18 -62 45 -85 73 -63 92 71 120 102 155 171 20 41 37 81 37 90 0
26 11 47 26 47 8 0 14 -6 14 -12 1 -7 6 -3 13 8 8 15 20 21 39 18 23 -2 35 7
69 49 23 29 50 68 61 87 17 29 34 40 97 64 111 43 150 63 203 107 79 66 259
183 333 218 163 75 200 97 203 119 2 15 10 21 25 20 12 0 51 9 87 21 36 12 83
24 105 27 51 8 79 26 133 82 23 25 45 42 48 39 4 -3 -5 -37 -19 -75 -15 -41
-23 -79 -20 -95 4 -20 2 -27 -8 -25 -10 2 -16 -16 -23 -61 -6 -43 -16 -70 -31
-85 -16 -16 -25 -44 -34 -101 -6 -43 -18 -92 -26 -109 -14 -28 -14 -31 7 -54
18 -18 23 -36 23 -74 0 -32 5 -53 13 -55 7 -3 12 4 12 16 0 12 6 21 15 21 26
0 18 -52 -12 -77 -16 -13 -20 -20 -10 -17 21 7 21 1 2 -35 -13 -26 -13 -29 4
-34 10 -2 21 -17 25 -32 4 -15 16 -47 28 -72 13 -28 17 -47 11 -51 -18 -12
-30 -47 -28 -80 4 -40 15 -56 15 -20 0 14 8 32 18 41 24 22 36 22 27 0 -12
-32 -23 -107 -18 -117 4 -5 12 -1 18 8 11 14 14 10 19 -29 4 -25 5 -54 1 -64
-4 -12 8 -41 35 -83 39 -62 49 -93 31 -100 -5 -1 -12 -19 -16 -38 l-8 -35 22
25 22 25 -5 -45 c-3 -28 -3 -36 2 -20 4 14 14 25 22 25 17 0 21 -36 20 -146
-1 -59 1 -66 23 -76 18 -9 25 -8 33 4 15 24 41 5 48 -35 3 -21 1 -38 -4 -40
-13 -5 -13 -62 0 -62 5 0 16 -12 24 -27 8 -16 15 -23 16 -17 0 14 51 74 62 74
14 0 9 -33 -8 -51 -39 -43 -59 -164 -29 -175 12 -5 14 -18 10 -61 -3 -30 -7
-59 -11 -64 -3 -5 6 -4 20 3 35 15 44 3 24 -33 -9 -16 -13 -29 -8 -29 13 0 12
-11 0 -30 -8 -13 -13 -13 -31 -2 -13 8 -18 9 -14 2 13 -21 -4 -58 -28 -62 -18
-2 -23 -10 -25 -43 -2 -22 -12 -49 -23 -61 -20 -21 -20 -21 0 -27 16 -4 27 5
48 39 32 51 59 59 50 16 -5 -24 -2 -30 24 -39 21 -8 29 -18 29 -36 0 -14 6
-27 13 -30 9 -3 8 -8 -3 -22 -8 -10 -14 -26 -12 -37 2 -10 -2 -18 -7 -18 -6 0
-11 -12 -11 -27 0 -14 -7 -34 -16 -44 -11 -12 -13 -23 -6 -34 8 -15 12 -12 31
19 28 45 41 46 34 2 -4 -24 1 -49 17 -81 16 -33 19 -50 12 -57 -8 -8 -16 -8
-27 2 -20 17 -45 -3 -45 -37 0 -13 -7 -35 -16 -48 -15 -24 -15 -25 4 -25 15 0
22 9 27 30 6 27 10 30 46 30 43 0 43 -1 30 -48 -9 -28 -7 -32 10 -32 22 0 23
-6 8 -49 -6 -17 -17 -31 -25 -31 -22 0 -18 -64 6 -85 25 -23 25 -34 1 -43 -16
-6 -17 -9 -5 -20 12 -11 14 -10 14 3 0 8 7 15 15 15 8 0 15 -5 15 -11 0 -7 10
3 23 21 12 19 28 35 35 38 14 4 16 -30 2 -44 -5 -5 -6 -15 -1 -23 6 -9 11 -1
16 28 4 22 11 41 16 41 12 0 11 -87 -1 -110 -7 -14 -6 -29 4 -52 l14 -33 1 58
c1 72 17 67 26 -8 7 -54 25 -87 25 -46 0 11 9 25 19 31 33 17 41 12 35 -20 -5
-22 -2 -31 10 -35 9 -3 24 -7 33 -10 12 -4 13 -9 5 -17 -8 -8 -6 -21 9 -49 24
-48 25 -73 2 -65 -15 6 -15 5 1 -13 13 -15 26 -18 51 -14 25 4 39 0 56 -16 28
-26 36 -26 44 0 9 27 38 20 45 -11 l6 -25 8 23 c8 25 44 30 52 7 4 -8 -2 -27
-11 -42 l-18 -26 31 21 c37 27 37 27 61 1 10 -11 22 -16 25 -11 3 5 27 7 53 5
36 -4 54 -12 72 -31 17 -20 22 -22 17 -8 -6 19 27 66 46 66 13 0 -2 -69 -23
-112 -20 -39 -26 -77 -8 -45 5 9 18 17 28 17 14 0 17 6 13 26 -3 19 -1 25 9
22 19 -6 57 42 76 97 13 40 19 46 37 41 18 -4 25 4 51 60 31 69 48 77 53 26 2
-24 -1 -32 -12 -32 -18 0 -20 -32 -6 -65 8 -18 9 -17 9 8 1 17 7 27 16 27 8 0
12 6 9 15 -3 8 1 24 10 37 9 12 16 39 16 60 0 31 4 38 20 38 21 0 29 33 10 45
-12 7 -14 55 -2 55 13 0 33 -17 31 -26 -4 -15 13 -69 24 -76 8 -4 7 -14 0 -31
-6 -13 -8 -30 -3 -37 5 -8 16 13 30 56 13 38 27 74 32 81 5 7 5 14 -2 18 -21
13 -8 85 16 85 8 0 14 4 14 9 0 6 -12 6 -32 0 -41 -11 -38 -11 -38 4 0 6 21
34 45 60 28 29 45 56 44 70 -1 17 -2 18 -6 4 -6 -22 -39 -22 -52 1 -6 9 -11
12 -11 5 0 -6 5 -15 10 -18 16 -10 12 -40 -8 -58 -24 -22 -29 -21 -43 4 -8 16
-8 23 1 29 9 6 9 12 0 30 l-12 22 -28 -32 c-26 -29 -29 -38 -23 -76 5 -36 3
-44 -10 -44 -9 0 -19 5 -22 10 -3 6 -17 7 -29 4 -24 -6 -56 17 -56 40 0 7 11
18 25 24 14 6 25 20 25 29 0 15 2 16 10 3 11 -17 13 -1 4 25 -6 14 -9 13 -30
-6 -36 -34 -41 -15 -12 44 14 29 31 70 38 92 7 22 15 47 18 55 4 8 6 31 7 50
0 22 4 34 13 33 8 -2 12 12 12 47 0 37 4 50 14 50 23 0 26 -28 16 -119 -6 -52
-16 -91 -26 -102 -10 -11 -13 -25 -9 -38 4 -12 2 -21 -4 -21 -17 0 -13 -27 5
-34 27 -10 38 -7 94 29 47 30 56 41 70 87 9 29 24 68 33 85 17 31 17 33 -3 53
-22 22 -26 40 -10 40 6 0 4 13 -5 30 -29 56 -19 72 69 112 21 10 46 18 55 18
9 0 34 11 56 25 81 49 124 22 69 -44 -24 -29 -25 -31 -5 -31 17 0 20 -6 18
-40 -2 -22 0 -40 4 -40 14 0 7 -85 -8 -102 -20 -22 -43 -23 -43 -2 0 8 -5 12
-10 9 -12 -7 -4 -70 12 -95 6 -11 7 -8 3 8 -5 18 -2 25 12 28 11 3 27 21 38
40 21 40 35 44 35 9 0 -20 5 -25 23 -25 17 0 23 5 22 20 -1 11 -4 23 -8 26 -4
4 -7 14 -7 21 0 11 8 13 28 9 24 -6 27 -4 27 19 0 14 -4 25 -8 25 -5 0 -7 10
-5 23 2 16 11 23 32 25 28 4 29 3 23 -35 l-7 -38 25 30 c13 17 24 36 25 44 0
8 6 11 16 7 9 -3 17 -6 20 -6 4 0 36 -58 46 -85 5 -12 6 -6 3 15 -3 20 -18 48
-35 65 -38 39 -38 46 1 38 31 -6 31 -5 24 26 -6 27 -4 31 13 31 11 0 23 -8 27
-17 6 -17 7 -17 19 0 7 9 18 17 25 17 19 0 12 -25 -14 -50 -29 -27 -27 -37 4
-18 17 10 23 10 33 -1 10 -11 10 -14 1 -18 -21 -8 -15 -32 6 -26 12 3 23 17
26 34 4 15 15 31 26 34 23 8 25 25 3 25 -24 0 -12 35 14 38 12 2 26 12 32 22
5 10 26 24 45 30 19 6 37 16 40 21 4 5 -5 4 -19 -3 -32 -14 -48 -1 -22 18 29
21 61 17 80 -8 l17 -23 -12 24 c-10 20 -9 27 7 38 10 7 22 13 28 13 5 0 7 3 4
6 -4 3 -20 -2 -37 -10 -24 -13 -36 -14 -58 -5 -26 11 -27 12 -8 20 15 7 13 8
-10 3 -16 -3 -45 -7 -62 -8 -18 0 -33 -6 -33 -13 0 -21 -19 -24 -52 -10 -59
26 -66 27 -61 7 3 -12 -3 -22 -17 -30 -19 -10 -33 -6 -96 26 -64 32 -73 40
-68 59 4 18 0 24 -20 29 -14 3 -38 3 -52 0 -14 -4 -36 -1 -49 6 -19 10 -36 10
-85 1 -34 -7 -65 -10 -68 -6 -3 3 2 19 11 34 22 37 21 54 -2 75 -18 16 -21 16
-48 2 -15 -9 -39 -24 -52 -33 l-24 -17 8 59 c4 33 11 67 16 76 6 11 4 21 -5
28 -11 9 -12 6 -9 -13 6 -31 -24 -52 -89 -61 -52 -8 -50 -12 -63 84 -5 37 -3
43 11 37 11 -4 18 0 21 14 3 11 11 20 19 20 7 0 16 4 19 10 3 6 -1 7 -9 4 -25
-10 -20 29 7 53 12 12 31 23 42 25 24 5 22 31 -6 66 -23 30 -25 52 -4 52 8 0
15 5 15 10 0 6 -4 10 -9 10 -6 0 -30 18 -55 39 -32 28 -61 43 -98 50 -57 12
-86 26 -76 36 3 4 44 15 90 25 107 24 135 38 149 75 22 59 34 78 56 88 13 6
23 18 23 27 0 10 8 28 19 41 33 43 51 87 51 126 0 21 12 61 25 88 34 69 53
154 36 164 -15 10 15 64 76 137 24 28 43 56 43 63 0 6 5 11 10 11 6 0 10 6 10
13 1 6 20 44 44 82 29 47 40 72 32 77 -8 5 -7 11 2 20 6 6 12 20 12 30 0 10 4
18 8 18 5 0 14 37 21 83 7 45 23 114 36 152 13 39 26 97 30 130 4 33 18 80 31
104 13 24 24 54 24 67 0 13 4 24 9 24 5 0 12 11 15 25 7 28 17 31 49 14 16 -9
22 -9 25 0 2 6 19 11 37 11 20 0 35 6 39 15 3 8 17 15 32 15 14 0 42 7 61 16
30 15 43 15 101 4 118 -21 132 -22 147 -10 12 10 15 7 21 -14 5 -22 12 -26 45
-26 21 0 61 5 89 11 43 9 54 8 69 -5 20 -18 52 -21 67 -6 12 12 134 1 134 -11
0 -5 8 -9 18 -9 10 0 27 -7 38 -15 18 -13 16 -14 -26 -15 -47 0 -80 -13 -62
-24 5 -3 10 -17 10 -31 0 -24 -3 -25 -60 -25 -32 0 -57 3 -55 8 3 4 -14 8 -36
8 -23 1 -58 5 -77 8 -19 4 -48 7 -65 7 -16 -1 -55 -1 -87 0 -55 0 -142 -23
-205 -55 -19 -10 -35 -29 -42 -49 l-11 -32 19 25 c20 25 22 25 165 25 103 0
149 -4 158 -12 9 -10 7 -13 -13 -13 -59 -1 -209 -21 -256 -35 -50 -15 -113
-57 -113 -75 0 -5 13 -4 29 1 34 12 147 8 116 -4 -11 -5 -42 -18 -70 -29 -27
-11 -60 -21 -73 -20 -43 0 -56 -38 -66 -202 -5 -83 -9 -190 -10 -238 -1 -48
-6 -92 -12 -98 -7 -7 -8 -30 -1 -72 6 -41 5 -69 -2 -85 -8 -18 -8 -23 4 -23
21 0 19 -13 -4 -27 -13 -8 -18 -19 -14 -32 3 -14 0 -23 -11 -27 -9 -3 -16 -12
-16 -20 0 -8 -5 -14 -11 -14 -17 0 11 -104 65 -240 42 -108 70 -229 70 -312 1
-55 5 -78 14 -78 16 0 15 -15 -3 -34 -8 -8 -15 -24 -15 -35 0 -14 5 -19 15
-15 24 9 18 -28 -10 -69 -13 -20 -20 -39 -15 -42 6 -3 17 10 27 29 33 71 40
39 17 -83 -6 -31 -5 -32 14 -22 29 15 30 15 37 -18 5 -23 10 -28 27 -23 33 8
84 64 106 115 22 49 49 66 38 23 -4 -15 0 -28 9 -36 23 -19 19 -42 -7 -38 -20
3 -23 -1 -20 -25 2 -15 -4 -40 -13 -55 -13 -23 -12 -23 7 3 36 47 79 85 95 85
21 0 11 -48 -22 -100 -14 -22 -23 -40 -19 -40 18 0 44 23 44 40 0 11 9 24 20
30 11 6 20 18 20 28 1 40 18 -16 24 -78 7 -83 -29 -258 -66 -316 -4 -6 -30
-14 -57 -17 -27 -3 -59 -12 -72 -19 -17 -10 -23 -10 -26 0 -6 17 -28 15 -43
-3 -10 -12 -10 -15 4 -15 24 0 19 -15 -9 -28 -28 -13 -32 -27 -10 -36 8 -3 15
-11 15 -18 0 -29 109 -9 155 28 34 27 21 31 -32 9 -44 -19 -73 -19 -73 -2 0
15 71 50 105 53 11 0 28 2 37 3 12 1 15 6 11 17 -8 21 16 35 49 28 20 -4 30 0
40 15 16 26 28 27 28 2 0 -11 -10 -27 -22 -35 -12 -9 -18 -16 -13 -16 18 1 41
25 56 58 8 18 21 34 29 37 29 9 71 75 74 116 2 22 -1 42 -5 45 -16 10 -9 24
11 24 11 0 20 5 20 10 0 6 10 10 23 10 21 0 20 1 -8 25 -25 20 -28 26 -15 34
13 9 12 12 -5 25 -16 13 -17 15 -4 16 9 0 40 33 70 73 29 39 61 78 71 85 10 7
18 24 18 36 0 28 74 142 101 156 10 6 19 21 19 34 0 13 7 27 16 30 13 5 15 15
10 45 -4 24 -2 41 5 43 7 2 7 12 0 31 -11 28 -6 57 10 57 16 0 9 17 -17 43
-22 22 -25 32 -20 61 5 23 0 53 -14 92 -11 32 -20 72 -20 89 l1 30 39 -45 c39
-44 57 -74 80 -135 8 -22 13 -26 20 -15 7 11 12 11 34 -3 33 -22 33 -22 51 13
17 33 20 86 5 95 -5 3 -10 17 -10 31 0 15 -6 24 -15 24 -8 0 -15 5 -15 10 0 6
-7 10 -16 10 -11 0 -14 6 -9 20 5 15 2 20 -12 20 -32 0 -46 15 -35 36 6 11 15
37 21 59 12 46 36 60 114 68 26 2 50 7 54 10 13 14 6 127 -10 151 -10 14 -17
30 -17 36 0 13 47 13 55 0 3 -5 11 -10 17 -10 6 0 5 6 -3 16 -10 12 -24 15
-61 10 -26 -4 -56 -2 -67 3 -14 8 -31 4 -71 -16 -30 -15 -62 -35 -72 -45 -15
-15 -35 -18 -126 -18 -60 0 -111 2 -114 5 -3 3 -3 16 -1 29 4 20 20 29 96 56
130 45 163 60 186 84 l20 21 -72 -3 c-101 -5 -181 9 -185 31 -3 13 3 17 24 17
24 0 94 34 94 46 0 9 -94 47 -116 47 -14 0 -26 7 -29 18 -4 11 -13 19 -21 19
-10 0 -14 9 -12 27 3 25 -2 29 -89 63 -51 19 -98 41 -105 48 -6 6 -27 12 -46
12 -24 0 -42 9 -64 31 -23 22 -43 32 -79 36 -50 6 -67 22 -26 24 122 6 255
-12 370 -52 52 -18 96 -27 109 -23 17 5 13 10 -30 35 -54 30 -72 49 -49 49 8
0 72 -20 143 -44 98 -33 150 -46 214 -50 83 -5 131 4 96 17 -19 7 -22 47 -3
47 7 0 18 9 25 20 7 12 8 20 2 20 -5 0 -10 14 -10 30 0 18 -8 37 -20 47 -11
10 -20 23 -20 30 0 23 -63 46 -127 48 -35 0 -63 -3 -63 -7 0 -16 -51 -7 -70
12 -16 16 -25 18 -40 10 -22 -12 -80 -13 -80 -2 0 18 123 35 215 30 52 -3 95
-1 95 3 0 5 6 9 14 9 8 0 22 7 31 16 13 14 22 14 68 4 83 -20 117 -37 117 -59
0 -11 -7 -21 -17 -23 -15 -3 -15 -4 0 -16 17 -15 18 -13 33 103 5 45 7 48 20
31 13 -18 14 -18 24 8 5 15 10 31 10 36 0 4 7 11 16 14 10 4 15 1 13 -12 -3
-24 11 -72 22 -72 5 0 9 7 9 16 0 9 8 14 18 13 40 -4 77 1 64 10 -10 6 -11 22
-6 62 7 51 8 86 5 135 0 11 -12 27 -25 34 -28 15 -38 33 -30 55 8 20 21 19 27
-2 4 -14 5 -13 6 4 1 22 -10 27 -88 35 -20 2 -26 10 -29 38 -2 19 -8 42 -13
52 -7 13 -5 25 7 43 10 16 12 25 5 25 -6 0 -14 -7 -17 -15 -7 -16 -39 -20 -48
-6 -3 5 -2 29 2 53 l9 44 -31 -5 c-19 -3 -24 -6 -13 -9 12 -2 17 -13 17 -38 0
-46 -20 -43 -43 6 -16 34 -17 45 -7 76 14 42 133 164 161 164 15 0 19 7 19 39
0 29 5 41 18 45 14 5 17 17 17 65 0 33 -3 63 -7 67 -15 15 -8 97 9 117 13 14
17 34 16 78 0 32 2 59 7 59 4 0 10 9 13 20 3 11 1 20 -4 20 -14 0 -11 17 6 34
8 8 15 31 15 50 0 20 5 36 11 36 7 0 9 11 6 30 -4 17 -2 30 3 30 6 0 10 14 10
31 0 29 2 31 30 27 26 -4 29 -2 24 14 -4 13 0 18 13 18 18 0 19 4 14 98 -1 12
-7 22 -16 22 -8 0 -15 9 -15 19 0 14 8 21 28 23 25 3 27 6 30 56 3 50 1 56
-30 85 -36 35 -78 120 -78 161 0 29 -68 106 -94 106 -10 0 -20 8 -22 18 -6 19
-66 62 -88 62 -9 0 -20 17 -27 41 -14 44 -26 53 -82 62 -41 6 -127 44 -127 56
0 4 5 12 11 18 8 8 6 16 -8 29 -29 28 -63 46 -63 34 0 -19 -21 -10 -48 19 -20
23 -36 30 -62 30 -60 -1 -204 34 -218 52 -6 10 -27 21 -45 24 -17 4 -37 11
-43 16 -5 4 -37 10 -71 12 -70 5 -86 12 -78 35 8 27 -43 37 -402 79 -45 5 -53
9 -53 26 0 12 9 31 21 43 17 18 18 22 5 27 -17 7 -83 -40 -92 -66 -5 -15 -13
-17 -44 -12 -30 5 -40 3 -48 -11 -7 -13 -18 -16 -51 -11 -33 4 -48 0 -77 -19
-19 -13 -50 -31 -69 -38 -18 -8 -61 -33 -94 -55 -34 -22 -67 -38 -75 -35 -7 3
-19 -2 -26 -11 -20 -24 -49 -19 -56 11 -7 27 -8 27 -74 3 -35 -13 -121 -69
-106 -69 4 0 41 14 82 31 40 17 79 29 86 27 7 -3 -4 -21 -27 -47 -21 -23 -44
-40 -50 -37 -7 2 -25 -9 -41 -25 -15 -16 -36 -29 -46 -29 -9 0 -32 -13 -50
-28 -48 -40 -87 -64 -97 -57 -12 7 -110 -19 -150 -40 -18 -9 -55 -34 -84 -55
-29 -22 -58 -40 -64 -40 -7 0 -13 -7 -13 -15 0 -10 -10 -15 -30 -15 -21 0 -30
5 -30 16 0 8 -4 13 -9 10 -5 -3 -7 -14 -4 -25 4 -15 -3 -19 -42 -23 -32 -4
-55 -14 -74 -32 -30 -29 -54 -35 -45 -11 5 12 -2 15 -30 15 -20 0 -36 5 -36
10 0 6 7 10 15 10 8 0 15 4 15 10 0 13 -33 0 -43 -17 -4 -7 -18 -13 -30 -13
-13 0 -26 -9 -32 -22 -7 -16 -20 -24 -41 -26 -26 -3 -31 -7 -27 -23 4 -14 0
-19 -15 -19 -15 0 -19 -5 -15 -20 7 -25 -18 -36 -46 -20 -15 7 -21 8 -21 0 0
-6 -12 -22 -26 -35 -32 -30 -21 -32 21 -5 17 11 38 20 48 20 23 0 22 -27 -2
-35 -35 -11 -102 -65 -111 -90 -5 -14 -14 -25 -20 -25 -7 0 -8 -6 0 -19 15
-29 12 -41 -8 -41 -10 0 -38 -21 -62 -46 -25 -25 -37 -42 -27 -38 14 5 17 1
17 -25 l0 -32 37 26 c67 45 84 30 29 -24 -30 -29 -33 -36 -20 -48 8 -8 14 -26
15 -41 0 -15 3 -21 6 -14 5 12 43 17 43 5 0 -4 -10 -17 -22 -30 -16 -17 -22
-37 -23 -66 0 -28 -4 -41 -12 -39 -8 1 -13 -9 -13 -28 0 -18 -11 -42 -30 -63
-32 -37 -37 -53 -18 -59 17 -6 -17 -59 -41 -65 -15 -4 -17 -13 -13 -54 4 -39
1 -50 -12 -55 -9 -3 -16 -12 -16 -20 0 -8 -4 -22 -9 -32 -6 -9 -12 -29 -15
-43 -8 -39 -44 -79 -71 -79 -28 0 -45 -26 -45 -68 0 -16 -8 -40 -19 -53 -10
-13 -21 -34 -25 -46 -12 -39 -29 -27 -22 16 3 23 2 42 -4 46 -5 3 -10 19 -10
35 0 24 -3 27 -21 23 -19 -5 -21 -3 -16 18 3 13 2 31 -3 39 -6 9 -4 20 3 29 7
8 12 47 12 90 1 42 6 89 13 105 7 16 16 46 21 68 8 36 7 40 -17 55 -15 9 -29
18 -31 20 -3 2 4 9 14 17 17 12 17 13 -6 19 -19 5 -27 17 -37 59 -6 28 -9 54
-4 57 4 3 8 26 8 51 3 89 19 150 40 150 8 0 14 9 14 19 0 10 7 21 15 25 9 3
15 18 15 35 0 16 5 33 10 36 6 3 10 18 10 33 0 43 25 103 51 123 l24 18 -22
20 c-25 23 -23 30 23 141 15 36 27 78 28 95 1 16 9 38 20 49 13 13 17 27 13
51 -6 38 25 159 47 181 9 8 16 24 16 35 0 24 134 331 206 469 29 58 44 93 33
78 -11 -16 -27 -28 -35 -28 -8 0 -14 -10 -14 -26 0 -22 -92 -205 -122 -241 -6
-7 -21 -13 -34 -13 -25 0 -54 -42 -54 -78 0 -28 -46 -159 -70 -196 -11 -19
-23 -54 -26 -80 -5 -35 -11 -46 -23 -44 -9 2 -18 14 -21 26 l-5 24 -27 -21
c-31 -25 -37 -19 -47 47 -9 66 -31 62 -55 -10 -14 -44 -23 -58 -37 -58 -11 0
-19 3 -19 8 0 16 29 101 41 120 11 17 8 25 -25 63 -37 44 -37 44 -13 47 19 2
24 8 20 23 -6 23 -31 25 -39 4 -9 -21 -34 -19 -34 3 0 10 27 43 60 72 60 53
68 80 17 61 -18 -7 -27 -19 -29 -38 -2 -17 -10 -29 -20 -31 -23 -4 -24 37 -2
79 12 24 18 28 29 19 10 -8 15 -8 21 1 4 7 2 15 -4 17 -7 2 -12 21 -12 43 0
32 3 39 20 39 13 0 27 14 41 43 12 23 43 67 69 97 26 30 52 65 59 78 l12 22
-150 0 c-144 0 -149 -1 -144 -20 11 -40 -5 -67 -42 -74 -29 -6 -35 -11 -35
-31 0 -18 -5 -25 -19 -25 -11 0 -26 -2 -34 -6 -10 -3 -16 4 -20 25 -4 20 -13
31 -23 31 -13 0 -15 7 -11 33 3 17 8 40 12 50 6 14 2 17 -21 17 -22 0 -25 -3
-16 -12z m199 -2485 c-3 -72 -13 -132 -28 -178 -22 -69 -22 -70 -30 -36 -4 18
-16 46 -28 62 -12 15 -21 38 -21 50 0 28 47 109 62 109 9 0 9 3 0 12 -17 17
-15 38 3 38 8 0 17 11 21 25 3 14 11 25 17 25 6 0 8 -37 4 -107z m1456 -163
c31 -11 65 -20 75 -20 11 0 30 -8 43 -19 13 -10 31 -20 39 -23 10 -3 4 -10
-19 -23 -26 -13 -49 -16 -92 -12 -68 6 -89 -7 -54 -34 13 -11 26 -19 29 -19 4
0 24 -12 46 -26 52 -35 56 -71 8 -71 -18 0 -40 6 -49 14 -9 8 -33 17 -53 20
-50 8 -41 -11 32 -64 86 -64 152 -130 152 -153 0 -18 -5 -16 -51 18 -66 49
-55 43 -174 84 -16 6 -38 15 -47 19 -10 5 -24 9 -32 9 -7 0 -19 6 -25 14 -7 8
-42 24 -79 36 -77 25 -114 43 -131 64 -8 9 -23 13 -39 10 -15 -2 -54 4 -87 14
-52 16 -60 21 -60 43 0 23 3 24 55 22 46 -2 51 -1 30 8 -14 5 -53 13 -88 16
-54 5 -67 3 -92 -16 -30 -21 -60 -28 -60 -13 0 5 -26 5 -57 1 -32 -4 -59 -6
-61 -4 -11 10 10 34 45 51 63 31 203 25 404 -20 179 -39 300 -47 334 -22 17
12 16 14 -13 32 -18 10 -32 22 -32 27 0 10 33 56 40 57 3 0 31 -9 63 -20z
m-443 -1310 c0 -20 -98 -114 -167 -160 -71 -48 -166 -90 -202 -90 -10 0 -24
-7 -31 -15 -7 -9 -19 -14 -26 -11 -17 7 -123 -30 -145 -50 -9 -8 -26 -14 -36
-13 -16 2 -77 -19 -113 -39 -8 -5 -16 -21 -18 -36 -2 -16 -10 -26 -19 -26 -12
0 -14 8 -9 38 3 20 6 44 6 53 0 24 136 130 190 150 42 15 131 51 175 70 11 5
49 26 85 45 36 20 110 49 165 64 109 30 145 35 145 20z m-370 -678 c0 -10 88
-76 114 -85 10 -4 16 -13 13 -21 -3 -8 1 -13 11 -12 14 1 18 -12 22 -69 3 -38
13 -84 23 -102 9 -18 17 -38 17 -46 0 -8 10 -27 23 -43 12 -15 27 -46 32 -68
8 -33 18 -45 48 -59 43 -21 44 -25 18 -68 l-20 -32 -29 47 c-17 26 -56 107
-87 181 -64 152 -88 192 -128 214 -53 30 -106 138 -80 164 9 9 23 9 23 -1z"/>
<path d="M7945 9588 c-2 -7 -12 -41 -21 -76 -11 -40 -25 -70 -41 -81 -13 -11
-18 -21 -12 -23 8 -3 9 -24 2 -76 -9 -67 -8 -72 9 -72 25 0 42 44 26 70 -10
15 -7 25 16 59 19 27 27 48 23 62 -4 15 4 34 25 60 22 27 28 43 23 56 -5 10
-7 21 -7 26 3 12 -38 8 -43 -5z"/>
<path d="M8180 9580 c0 -13 -7 -20 -19 -20 -13 0 -23 -11 -31 -34 -6 -18 -20
-42 -31 -52 -17 -15 -20 -26 -15 -55 5 -33 3 -37 -19 -43 l-25 -6 21 -29 c14
-19 20 -37 16 -53 -3 -13 -9 -36 -13 -53 l-7 -30 25 23 c13 12 29 22 34 22 6
0 10 26 10 59 -1 54 1 60 19 58 30 -3 69 83 68 150 0 43 3 54 18 58 31 10 21
25 -16 25 -28 0 -35 -4 -35 -20z"/>
<path d="M8369 9484 c-33 -44 -89 -93 -89 -78 0 4 7 16 17 26 9 10 13 21 10
24 -6 7 -77 -66 -77 -78 0 -17 40 -7 68 17 17 14 34 25 40 25 20 0 23 -34 4
-60 -14 -18 -16 -28 -8 -36 18 -17 30 -11 33 18 4 42 36 94 54 90 8 -1 24 6
34 18 10 11 26 20 36 20 10 0 20 4 23 9 8 12 -55 20 -76 9 -15 -7 -17 -5 -15
13 4 38 -18 31 -54 -17z"/>
<path d="M8380 9275 c-19 -14 -40 -25 -47 -25 -7 0 -13 -9 -13 -19 0 -11 -9
-23 -20 -26 -25 -8 -26 -25 -2 -25 15 -1 15 -2 -2 -15 -11 -8 -17 -18 -13 -21
4 -4 13 -1 22 6 8 7 22 9 31 6 10 -4 33 8 64 34 26 22 51 40 54 40 14 0 4 -26
-21 -52 -14 -15 -23 -31 -19 -35 4 -5 22 9 39 30 35 41 48 45 68 21 11 -14 9
-19 -14 -36 -15 -11 -27 -27 -27 -36 1 -15 2 -15 11 1 5 9 18 17 29 17 10 0
21 -8 24 -17 3 -10 3 -2 0 19 -3 24 0 38 8 40 7 3 -1 12 -19 22 -39 20 -43 36
-8 36 14 0 25 5 25 11 0 6 -6 9 -12 7 -7 -3 -21 6 -32 20 -14 18 -21 21 -27
10 -7 -10 -12 -11 -29 0 -26 16 -29 15 -70 -13z"/>
<path d="M2831 8802 c-1 -30 -28 -40 -46 -16 -14 18 -14 18 -15 -3 0 -12 -7
-28 -15 -37 -8 -8 -15 -20 -15 -26 0 -20 -34 -6 -46 19 -12 24 -13 24 -19 -12
-7 -36 -18 -46 -30 -27 -12 19 -33 -2 -45 -46 -7 -24 -16 -44 -20 -44 -5 0
-18 12 -30 28 l-21 27 5 -80 c5 -73 3 -82 -14 -93 -11 -7 -20 -19 -20 -27 0
-14 -91 -115 -182 -202 -21 -20 -38 -41 -38 -46 0 -16 -103 -107 -120 -107 -8
0 -20 -10 -25 -22 -10 -22 -33 -38 -90 -60 -27 -11 -28 -12 -8 -15 21 -4 102
44 164 96 51 43 151 112 156 107 3 -3 1 -19 -5 -35 -16 -45 -6 -38 33 23 32
51 53 68 113 95 12 6 22 15 22 20 0 16 101 85 263 180 86 51 157 95 157 97 0
2 -18 -3 -40 -12 -22 -9 -51 -14 -65 -12 -14 3 -30 -1 -36 -8 -6 -8 -15 -14
-20 -14 -5 0 -36 -18 -68 -40 -65 -45 -71 -47 -71 -25 0 26 45 88 108 147 49
47 57 60 45 66 -23 13 -8 48 27 62 32 13 33 15 20 45 -8 19 -9 19 -9 -3z"/>
<path d="M5881 8705 c-2 -5 -2 -33 -1 -60 2 -65 -25 -233 -46 -284 -8 -21 -14
-54 -12 -73 2 -27 7 -32 23 -30 40 7 50 29 49 107 0 41 2 75 5 75 6 0 5 32 -8
180 -4 52 -9 91 -10 85z"/>
<path d="M6070 8475 c-14 -143 -16 -150 -37 -153 -22 -3 -28 6 -24 36 3 18
-12 15 -36 -7 -22 -21 -28 -46 -42 -176 -6 -51 -6 -86 1 -98 5 -11 7 -34 4
-51 -5 -24 -1 -39 14 -56 l20 -23 0 26 c0 19 5 27 18 27 26 0 42 -20 42 -52 0
-32 25 -30 33 3 5 17 11 19 40 14 43 -8 57 9 30 36 -18 18 -21 19 -49 4 -16
-8 -35 -15 -41 -15 -18 0 -16 27 3 38 15 8 15 10 -1 16 -12 4 -18 0 -22 -14
-6 -24 -19 -25 -39 -6 -20 21 -17 50 7 72 16 14 22 15 28 5 12 -18 19 -3 27
58 4 29 13 58 20 66 8 7 14 20 14 28 0 8 7 18 16 21 9 4 12 11 7 18 -4 7 -10
85 -13 173 l-5 160 -15 -150z"/>
<path d="M2799 8368 c-52 -33 -113 -69 -135 -80 -28 -12 -44 -26 -48 -43 -6
-24 -109 -99 -179 -129 -18 -8 -41 -21 -52 -29 -19 -14 -18 -15 10 -9 26 5 28
3 17 -10 -10 -13 -10 -17 2 -21 9 -4 18 -2 22 4 3 6 29 21 57 34 86 40 182
102 212 134 17 19 17 25 6 43 -19 30 -2 44 183 145 31 17 36 23 20 23 -12 0
-64 -28 -115 -62z"/>
<path d="M2896 8250 c-42 -55 -65 -67 -41 -20 19 36 19 40 0 40 -8 0 -15 -7
-15 -15 0 -20 -118 -155 -135 -155 -20 0 -19 26 0 34 8 3 15 11 15 17 0 7 7
21 17 31 9 10 11 18 5 18 -6 0 -19 -11 -30 -25 -11 -14 -25 -25 -31 -25 -15 0
-90 -40 -97 -52 -4 -6 -1 -14 6 -18 20 -12 2 -46 -33 -64 -18 -8 -26 -16 -19
-16 18 0 15 -20 -5 -37 -16 -13 -16 -13 4 -4 12 6 25 20 28 31 7 24 13 24 39
5 16 -12 18 -18 8 -40 -7 -14 -22 -30 -34 -36 -43 -19 -68 -36 -62 -41 3 -4 1
-14 -5 -25 -5 -10 -17 -38 -26 -63 -9 -26 -31 -58 -53 -77 -34 -30 -36 -35
-40 -102 -4 -72 -8 -77 -49 -72 -8 1 -13 -10 -13 -29 0 -48 -24 -31 -30 21
l-5 44 -8 -34 c-4 -18 -7 -76 -7 -127 0 -91 1 -94 23 -93 12 0 16 3 10 6 -23
9 -14 33 12 33 15 0 25 6 25 15 0 8 14 30 31 50 35 40 74 45 74 10 0 -11 2
-19 5 -18 3 1 18 6 33 12 16 6 32 11 36 11 5 0 43 23 85 50 81 53 136 66 136
33 0 -38 -21 -93 -36 -93 -8 0 -12 -4 -9 -10 3 -5 17 -10 30 -10 18 0 36 15
66 53 23 28 51 55 63 59 17 5 14 6 -11 7 -36 1 -42 11 -17 32 12 10 22 10 48
1 18 -7 48 -11 67 -11 23 1 27 3 12 6 -13 2 -23 10 -23 18 0 13 80 58 88 50 3
-2 -2 -25 -10 -50 -15 -44 -15 -45 7 -45 32 0 85 20 85 32 0 6 11 7 26 4 18
-5 32 -2 45 10 21 19 24 18 33 -13 6 -19 3 -23 -12 -23 -11 0 -40 -8 -64 -19
-24 -10 -71 -23 -105 -29 -64 -11 -117 -37 -107 -53 3 -5 87 -9 187 -9 266 0
395 -25 637 -121 134 -54 136 -54 240 -53 116 1 170 12 221 47 34 23 41 53 16
69 -8 5 -5 9 6 14 17 6 17 7 0 26 -13 15 -25 18 -50 13 -33 -6 -42 2 -22 22
17 17 -11 53 -41 53 -14 0 -31 -5 -38 -12 -9 -9 -16 -7 -31 6 -15 13 -29 16
-68 10 -50 -6 -50 -6 -63 27 -8 19 -13 40 -13 47 0 6 -3 12 -7 12 -5 0 -10 -6
-13 -12 -3 -10 -9 -8 -24 5 -11 9 -25 17 -32 17 -6 0 -30 9 -52 20 -28 15 -49
19 -73 14 -33 -6 -35 -4 -58 45 l-23 51 -50 -6 c-27 -3 -70 -12 -94 -21 -35
-13 -46 -13 -49 -4 -3 8 -14 3 -33 -14 -15 -15 -38 -29 -51 -30 -13 -2 -31 -6
-40 -10 -25 -10 -23 9 4 45 30 41 17 47 -39 19 -26 -13 -51 -25 -55 -27 -5 -2
-8 3 -8 11 0 22 31 44 72 51 37 7 45 14 91 85 27 42 147 127 157 111 4 -6 12
0 19 16 28 63 -49 37 -113 -37 -33 -39 -55 -50 -57 -26 0 6 -5 -1 -11 -18 -18
-49 -56 -72 -73 -45 -9 15 -36 -2 -90 -59 -27 -28 -62 -57 -79 -66 -17 -9 -56
-32 -86 -51 -43 -27 -62 -34 -86 -29 -23 4 -35 0 -49 -15 -10 -11 -31 -20 -46
-20 -15 0 -31 -4 -34 -10 -9 -15 -25 -12 -25 5 0 8 -4 15 -10 15 -5 0 -10 -4
-10 -10 0 -5 -7 -10 -15 -10 -31 0 -6 72 52 154 24 32 43 62 43 68 0 5 15 15
33 23 18 7 41 23 51 34 11 12 27 21 36 21 10 0 23 7 30 15 7 8 20 15 29 15 20
1 51 24 51 38 0 7 12 19 26 29 24 16 25 18 8 30 -15 11 -16 16 -4 37 7 14 34
47 59 73 25 26 53 57 61 68 14 19 14 19 -5 5 -38 -28 -100 -83 -176 -156 -68
-66 -99 -87 -99 -68 0 4 16 28 35 54 34 46 47 100 24 100 -6 0 -9 7 -5 15 3 8
1 15 -4 15 -5 0 -11 -8 -15 -17 -6 -19 -50 -73 -60 -73 -18 0 18 85 53 124 36
39 39 53 8 33 -15 -10 -34 -16 -42 -13 -10 4 -25 -6 -41 -24 -26 -32 -63 -40
-63 -15 0 9 6 18 14 21 8 3 19 19 25 35 5 16 18 33 28 37 10 4 19 15 19 25 1
9 1 17 0 17 -1 0 -19 -22 -40 -50z"/>
<path d="M1365 8230 c-3 -5 -15 -10 -25 -10 -26 0 -36 -21 -16 -32 12 -7 16
-24 16 -78 0 -40 -4 -70 -10 -70 -5 0 -11 6 -11 13 -1 6 -3 19 -4 27 -1 8 -3
21 -4 28 0 8 -9 10 -23 7 -13 -3 -39 3 -60 14 -30 15 -38 16 -38 5 0 -20 -59
-18 -82 3 -17 15 -18 15 -18 -8 0 -35 13 -50 51 -58 30 -6 35 -12 43 -49 5
-24 5 -64 0 -94 l-9 -53 -60 0 c-55 0 -60 2 -63 23 -5 32 -24 27 -44 -14 -22
-43 -23 -87 -3 -104 10 -8 15 -9 15 -2 0 13 57 57 86 66 11 3 28 0 38 -7 15
-11 17 -17 7 -36 -10 -18 -9 -26 6 -49 22 -31 43 -78 43 -94 0 -6 -10 -8 -24
-4 -20 5 -23 3 -19 -14 7 -26 -7 -25 -52 1 -20 12 -52 23 -71 24 l-34 2 0 -51
c0 -78 8 -97 36 -90 18 5 30 -2 53 -29 17 -19 44 -40 61 -47 33 -14 36 -20 18
-38 -9 -9 -9 -12 -1 -12 7 0 20 14 30 30 9 17 22 30 28 30 21 0 35 -17 29 -33
-4 -12 -1 -17 10 -17 14 0 16 6 11 34 -6 32 -4 35 28 51 19 9 40 15 48 13 16
-4 16 71 -1 133 -10 37 -12 38 -38 27 -15 -7 -37 -20 -49 -31 -17 -15 -20 -23
-11 -37 6 -9 8 -25 5 -34 -19 -48 -56 20 -38 70 13 36 5 90 -15 98 -14 5 -20
36 -7 36 4 0 35 -7 71 -16 35 -9 66 -14 69 -11 11 12 -9 27 -45 33 -56 10 -92
32 -92 55 0 11 12 36 26 55 22 28 24 37 14 49 -20 24 -4 30 27 10 18 -12 28
-14 31 -7 6 20 29 14 50 -12 14 -18 21 -49 26 -113 3 -48 14 -130 22 -181 9
-51 14 -106 12 -122 -4 -23 0 -29 19 -33 16 -3 24 1 28 14 4 11 13 19 21 19
20 0 18 17 -3 24 -33 11 -54 75 -59 181 -7 135 -10 166 -25 270 -8 50 -14 127
-14 173 0 45 -1 82 -2 82 -1 0 -5 -4 -8 -10z"/>
<path d="M0 8026 c0 -96 1 -102 24 -112 19 -9 28 -7 52 13 16 13 34 27 40 32
6 5 18 5 27 -1 23 -12 21 -2 -4 23 -12 12 -36 25 -55 31 -42 11 -44 27 -4 35
43 8 37 23 -10 23 -40 0 -52 14 -29 37 7 7 3 12 -15 15 l-26 5 0 -101z"/>
<path d="M845 8021 c5 -17 2 -21 -18 -21 -14 0 -27 -7 -31 -15 -9 -25 -36 -18
-36 10 0 34 -19 31 -31 -5 -6 -16 -14 -30 -18 -30 -4 0 -7 -10 -7 -22 1 -19
-5 -23 -30 -25 -27 -1 -33 3 -41 30 -6 23 -16 33 -33 35 -19 3 -22 1 -13 -10
6 -7 14 -28 18 -45 8 -38 -2 -41 -56 -19 -19 8 -81 17 -139 22 -76 5 -108 11
-116 22 -15 21 -74 20 -89 -1 -7 -9 -17 -17 -23 -17 -23 0 -22 -20 1 -31 15
-7 27 -23 31 -40 7 -37 25 -44 161 -59 119 -12 125 -14 125 -36 0 -9 5 -12 12
-8 8 5 9 -2 5 -24 -8 -39 13 -44 36 -9 15 21 15 22 22 2 17 -51 26 -65 40 -65
17 0 21 -25 5 -35 -5 -3 -10 -15 -10 -27 0 -11 -8 -22 -19 -25 -18 -5 -18 -6
-3 -22 13 -13 22 -15 36 -8 13 6 21 5 26 -3 6 -9 15 -8 39 4 36 19 39 34 11
69 -22 28 -26 57 -9 57 8 0 8 5 -1 15 -7 8 -23 15 -36 15 -19 0 -24 5 -24 24
0 29 17 43 33 27 19 -19 57 -13 57 8 0 13 11 23 33 30 38 13 67 6 67 -16 0 -7
12 -25 26 -38 23 -22 26 -31 22 -73 -4 -42 -2 -49 16 -58 20 -9 21 -7 20 31
-2 48 -26 100 -54 118 -26 15 -25 27 0 27 24 0 29 10 38 76 7 44 10 49 32 49
22 0 25 4 24 33 -1 28 -8 38 -53 69 -46 30 -52 32 -46 14z"/>
<path d="M1645 7990 c-10 -19 -23 -30 -36 -30 -17 0 -19 -3 -10 -14 9 -10 10
-33 3 -80 -8 -60 -7 -66 10 -66 13 0 18 8 18 30 0 18 5 30 13 30 9 0 12 10 9
31 -4 30 -3 31 24 25 41 -8 88 33 75 66 -6 13 -10 19 -10 15 -1 -5 -11 -1 -23
7 -34 24 -56 19 -73 -14z"/>
<path d="M1854 7925 c26 -24 26 -26 11 -54 -8 -17 -15 -37 -15 -47 0 -11 -5
-14 -17 -9 -19 7 -143 -25 -143 -37 0 -5 -6 -8 -14 -8 -7 0 -19 -7 -26 -15 -7
-8 -16 -15 -21 -15 -5 0 -9 7 -9 15 0 8 -2 15 -5 15 -14 0 -55 -34 -55 -45 0
-20 30 -74 47 -83 11 -7 12 -11 4 -16 -16 -10 -14 -26 3 -20 20 8 29 -37 11
-56 -12 -11 -18 -11 -27 -2 -21 21 -27 13 -25 -33 2 -36 6 -45 21 -45 12 0 16
-5 12 -15 -10 -26 2 -16 35 30 18 25 40 45 51 45 23 0 23 -5 -4 -43 -13 -18
-21 -38 -20 -46 2 -8 -2 -17 -9 -22 -10 -6 -10 -13 -1 -31 l11 -23 7 23 c3 12
14 22 25 22 13 0 19 -7 19 -22 1 -22 1 -22 14 -5 8 10 20 17 28 16 7 -1 21 -1
32 0 17 1 17 2 2 26 -15 23 -15 27 -1 41 8 8 15 20 15 25 0 15 52 10 70 -6 16
-14 17 -14 13 8 -4 19 -10 23 -26 19 -18 -5 -19 -2 -14 28 4 18 7 41 7 51 0
10 9 21 20 24 15 5 19 12 14 30 -9 37 13 68 45 63 25 -4 26 -2 23 29 -3 26 0
33 13 33 12 0 15 -6 10 -22 -6 -22 -5 -22 9 -4 26 33 -7 111 -49 118 -16 2
-19 10 -17 36 2 27 -2 34 -24 42 -14 6 -37 10 -51 10 l-26 0 27 -25z"/>
<path d="M5770 7804 c-6 -14 -10 -36 -10 -50 0 -21 3 -23 19 -14 30 15 31 14
31 -37 0 -61 -12 -82 -34 -64 -20 17 -21 5 -4 -49 10 -31 18 -40 35 -40 26 0
27 -3 13 -31 -19 -34 5 -20 40 22 28 35 31 45 22 60 -7 10 -12 25 -12 32 0 14
57 74 63 66 2 -2 1 -33 -3 -69 -7 -69 -5 -84 12 -74 5 4 7 21 4 39 -6 30 -2
36 35 66 40 31 42 32 55 14 20 -27 18 -32 -16 -38 -34 -7 -42 -37 -10 -37 11
0 20 7 20 15 0 8 7 15 16 15 11 0 14 -6 9 -20 -5 -16 -2 -20 14 -20 24 0 27
-10 9 -29 -11 -11 -9 -12 10 -6 18 5 22 2 23 -17 1 -23 1 -23 12 3 7 14 18 33
26 43 9 10 10 16 2 16 -6 0 -11 13 -11 29 0 37 -23 61 -60 61 -16 0 -31 4 -34
9 -8 13 22 22 50 15 22 -6 24 -3 24 29 0 42 -15 55 -38 34 -9 -9 -30 -17 -47
-19 -24 -2 -29 -7 -27 -24 3 -24 -22 -49 -38 -39 -6 4 -8 20 -4 40 5 28 3 34
-15 40 -12 3 -21 13 -21 22 0 10 -6 13 -16 9 -47 -18 -63 -17 -76 3 -18 30
-56 27 -68 -5z"/>
<path d="M0 7597 c0 -19 5 -37 12 -39 6 -2 12 -13 12 -24 3 -30 14 -42 46 -49
33 -7 44 -45 14 -45 -13 0 -14 -3 -4 -14 17 -22 8 -60 -17 -71 -24 -10 -29
-30 -13 -55 8 -13 10 -12 10 4 0 19 16 18 75 -4 24 -9 35 -30 15 -30 -5 0 -10
-7 -10 -15 0 -12 12 -14 56 -12 42 1 51 4 39 12 -52 30 -95 67 -95 80 0 8 10
20 23 26 31 16 67 50 67 63 0 6 -9 0 -19 -13 -25 -32 -71 -23 -71 14 0 13 -4
27 -10 30 -15 9 -12 25 4 25 8 0 16 10 18 23 2 17 9 22 31 20 15 -1 25 2 22 8
-4 5 -15 9 -25 9 -28 0 -34 19 -14 41 19 21 12 38 -9 21 -18 -15 -117 -4 -139
16 -17 14 -18 13 -18 -21z"/>
<path d="M927 7333 c-4 -38 -7 -89 -7 -114 0 -42 -3 -49 -38 -73 -46 -31 -59
-32 -67 -6 -5 16 -15 20 -53 20 -81 0 -92 -22 -32 -62 24 -16 36 -33 38 -52 3
-26 1 -28 -23 -24 -20 4 -25 2 -21 -9 3 -8 6 -17 6 -19 0 -2 9 -4 19 -4 16 0
21 -9 27 -45 4 -28 11 -45 20 -45 9 0 14 -12 14 -36 0 -34 -1 -36 -27 -29
l-28 7 30 -34 c16 -18 33 -37 37 -42 4 -6 7 11 6 37 -2 47 11 75 31 63 6 -4
11 -15 11 -24 0 -22 47 -138 54 -134 4 1 11 2 16 2 26 0 0 50 -32 63 -10 4
-10 8 1 15 9 7 16 32 18 66 3 55 -10 83 -22 46 -7 -22 -35 -28 -35 -7 0 16 48
87 60 87 5 0 10 -7 12 -16 2 -12 9 -8 26 15 14 20 17 28 8 25 -10 -4 -22 6
-36 28 -26 43 -25 58 4 58 19 0 25 6 28 30 2 16 0 31 -5 33 -5 1 -13 56 -17
120 -4 65 -9 120 -12 122 -3 3 -8 -25 -11 -62z"/>
<path d="M2193 7248 c-2 -5 7 -8 21 -8 13 0 31 -3 40 -6 19 -7 21 -55 4 -72
-9 -9 -8 -12 5 -12 13 0 16 -6 12 -23 -4 -15 1 -37 14 -58 11 -19 34 -89 50
-156 27 -105 69 -232 70 -212 1 3 -11 53 -25 110 -44 174 -47 205 -21 203 27
-3 20 10 -13 23 -24 9 -30 17 -30 41 0 25 9 37 56 70 34 24 51 42 42 45 -11 4
-11 8 0 27 18 30 8 37 -31 21 -41 -17 -79 -19 -84 -4 -2 6 6 13 19 16 13 2
-10 4 -50 3 -41 -1 -76 -4 -79 -8z"/>
<path d="M2517 7060 c-56 -97 -60 -198 -13 -345 54 -168 184 -344 302 -407 28
-15 90 -37 138 -48 195 -47 377 -15 559 99 34 21 74 41 90 45 15 3 27 11 27
16 0 6 9 10 20 10 14 0 20 7 20 23 0 31 46 126 65 133 8 3 15 17 15 29 0 13 5
27 10 30 6 3 10 11 10 16 0 6 -12 -4 -27 -21 -15 -18 -45 -40 -67 -50 -23 -9
-68 -34 -101 -54 -52 -31 -69 -36 -121 -36 -42 0 -65 -5 -74 -15 -10 -12 -30
-14 -104 -9 -131 7 -177 14 -171 25 4 5 14 9 24 9 32 0 41 22 21 48 -14 17
-29 22 -62 22 -24 0 -49 5 -56 12 -18 18 -34 -38 -28 -97 6 -57 -12 -120 -34
-120 -17 0 -32 92 -34 203 0 50 -4 62 -17 62 -10 0 -21 16 -29 43 -19 59 -45
111 -65 127 -15 13 -20 11 -42 -15 -13 -17 -46 -65 -73 -107 -28 -43 -55 -78
-62 -78 -23 0 -51 63 -54 120 -3 47 1 59 22 84 24 27 26 27 43 11 18 -16 20
-14 36 35 21 63 14 100 -19 100 -28 0 -51 24 -42 45 3 8 1 15 -5 15 -6 0 -9 5
-7 12 6 17 -33 60 -48 54 -7 -3 -14 0 -17 7 -2 6 -15 -9 -30 -33z"/>
<path d="M1094 6953 c-33 -35 -50 -41 -56 -20 -2 10 -11 11 -34 5 -25 -6 -33
-15 -38 -39 -10 -52 -7 -96 8 -108 8 -7 17 -22 20 -35 8 -32 72 -70 114 -67
26 1 35 -3 39 -18 3 -11 11 -17 18 -14 8 2 12 10 9 17 -4 10 15 15 66 20 79 7
106 17 132 50 17 21 18 20 18 -26 0 -25 -4 -48 -8 -50 -5 -1 5 -14 22 -28 27
-21 28 -21 12 -2 -22 26 -17 72 18 174 14 41 20 71 15 80 -13 20 -11 66 4 71
8 3 5 7 -7 13 -12 5 -21 3 -24 -4 -2 -6 -19 -32 -39 -58 -33 -43 -35 -50 -25
-77 13 -35 10 -43 -15 -31 -10 4 -25 8 -33 8 -10 1 -16 13 -18 34 -3 30 -5 32
-16 17 -10 -14 -16 -15 -34 -6 -27 14 -45 47 -36 64 4 6 -2 3 -14 -7 -21 -18
-23 -18 -41 -2 -11 10 -21 30 -23 45 l-3 28 -31 -34z"/>
<path d="M4019 6946 c-19 -13 -52 -48 -72 -78 -39 -56 -129 -252 -147 -319 -8
-27 -27 -55 -58 -85 -26 -24 -50 -44 -54 -44 -4 0 -32 -24 -61 -54 -59 -58
-159 -120 -252 -156 -51 -20 -84 -24 -212 -28 -165 -4 -252 6 -346 40 -46 17
-58 25 -54 39 4 15 2 16 -14 6 -15 -9 -25 -6 -61 20 -38 28 -43 36 -40 66 1
20 -2 38 -8 42 -6 4 -10 -4 -10 -19 0 -14 -6 -26 -13 -26 -6 0 -41 28 -76 63
-63 62 -96 124 -85 158 7 23 -54 46 -63 24 -3 -9 0 -21 5 -28 16 -18 18 -217
4 -244 -15 -27 -16 -56 -1 -30 15 25 26 21 38 -16 10 -30 2 -100 -21 -183 -1
-5 1 -19 6 -32 5 -15 0 -39 -18 -77 -26 -57 -52 -75 -44 -30 3 14 2 25 -2 25
-4 0 -10 -20 -13 -45 -5 -53 -14 -66 -28 -45 -7 11 -9 -16 -4 -86 4 -80 3
-105 -8 -116 -8 -7 -19 -22 -25 -34 -9 -17 -7 -20 16 -19 37 0 44 -41 10 -54
-20 -7 -23 -15 -23 -62 0 -48 -2 -54 -22 -57 -15 -2 -23 -10 -23 -23 0 -24 9
-24 26 -1 29 39 51 -40 31 -111 -7 -24 -4 -30 13 -34 11 -3 20 -9 20 -14 0 -5
5 -9 10 -9 16 0 12 42 -10 105 -28 83 -27 123 6 135 34 13 33 14 46 -17 16
-38 19 -63 21 -178 2 -88 0 -100 -15 -99 -9 1 -19 -5 -22 -12 -3 -8 1 -14 8
-14 8 0 19 -13 26 -30 13 -31 24 -37 35 -20 3 6 -1 13 -9 16 -18 7 -22 54 -6
54 7 0 8 13 5 34 -7 35 7 76 26 76 7 0 9 -21 4 -62 -4 -45 -3 -59 4 -48 6 8
11 25 11 37 0 38 38 38 136 0 69 -28 90 -40 95 -59 l7 -23 1 23 c2 45 31 16
31 -31 0 -25 70 -190 118 -281 21 -39 32 -73 32 -101 0 -23 4 -77 9 -121 6
-43 15 -153 22 -244 12 -176 23 -223 90 -397 30 -76 60 -129 116 -205 77 -106
112 -162 202 -329 47 -87 69 -112 214 -255 139 -136 185 -174 322 -266 88 -58
181 -115 206 -126 l47 -20 -4 37 c-2 21 -24 83 -49 138 -25 55 -45 107 -45
116 0 9 -4 19 -10 22 -5 3 -10 18 -10 32 0 14 -5 43 -11 63 -10 34 -9 40 10
59 21 21 23 21 56 5 19 -9 39 -22 46 -30 18 -22 26 -17 45 29 14 34 18 75 20
217 2 167 13 252 34 265 5 3 7 12 4 19 -3 9 3 17 15 21 23 7 29 35 9 35 -9 0
-13 15 -13 43 0 23 -8 57 -17 75 -10 18 -18 40 -18 50 0 9 -7 26 -15 36 -8 11
-15 37 -15 57 0 21 -4 40 -9 43 -4 3 -11 19 -15 36 -5 26 -15 35 -59 55 -30
13 -73 28 -96 35 -59 16 -51 30 18 30 33 0 97 9 143 21 46 11 109 25 141 30
32 5 67 13 77 19 10 5 34 10 54 10 36 0 131 49 191 98 37 30 85 99 85 122 0 9
9 26 19 37 11 12 17 24 13 28 -4 3 1 11 11 16 9 6 17 15 17 22 0 7 11 24 25
39 14 15 25 35 25 45 0 10 7 27 15 37 8 11 15 28 15 37 0 30 -72 28 -134 -3
-14 -7 -22 -5 -33 12 -29 41 -61 70 -77 70 -9 0 -16 4 -16 9 0 5 -13 14 -30
20 -20 7 -30 17 -30 30 0 18 -7 21 -42 23 -24 1 -60 1 -80 0 -28 -2 -38 2 -38
13 0 8 9 15 20 15 13 0 25 11 33 28 6 15 14 29 17 32 13 12 28 77 24 100 -5
21 0 28 23 37 24 9 18 11 -52 12 l-80 2 40 20 c53 28 65 45 65 94 0 68 -60 99
-144 75 -30 -8 -49 -8 -69 -1 l-28 11 20 26 c12 15 21 41 21 60 0 18 7 39 15
47 8 8 11 18 7 22 -4 4 5 5 21 1 15 -3 27 -3 27 2 0 8 71 35 123 46 15 4 27
11 27 16 0 6 8 10 17 10 11 0 13 3 7 9 -16 17 -231 109 -294 127 -68 19 -78
28 -58 51 10 13 10 17 1 20 -7 3 -13 21 -13 40 0 30 8 43 50 81 85 77 94 98
87 210 -3 55 -17 138 -31 190 -29 103 -33 188 -14 288 12 66 1 128 -28 164 -6
8 -15 25 -18 37 -9 29 -53 63 -80 63 -12 0 -37 -11 -57 -24z m-321 -703 c4
-30 -29 -92 -68 -127 -30 -26 -42 -29 -120 -34 -136 -7 -390 28 -390 54 0 8
33 14 98 18 353 22 378 27 424 85 26 34 52 36 56 4z m-258 -362 c0 -9 -93
-193 -126 -248 -10 -18 -25 -33 -31 -33 -19 0 -60 -69 -74 -123 -13 -54 -29
-57 -42 -6 -11 40 -2 158 13 173 5 5 10 17 10 26 0 19 141 160 160 160 7 0 10
7 6 16 -5 13 -2 15 13 11 12 -3 27 3 38 13 20 20 33 25 33 11z m105 -426 c85
0 100 -2 103 -17 2 -10 -5 -19 -19 -23 -19 -6 -20 -12 -15 -47 6 -35 4 -39
-10 -34 -8 3 -47 9 -84 12 -68 7 -69 7 -76 -20 -9 -36 -29 -33 -59 11 -25 37
-35 110 -17 127 4 4 23 4 42 0 19 -5 80 -8 135 -9z"/>
<path d="M1906 6908 c-3 -13 -6 -37 -6 -53 0 -17 -7 -41 -16 -53 -13 -19 -22
-22 -52 -17 -26 5 -33 4 -23 -4 21 -14 -2 -66 -26 -57 -12 5 -13 4 -4 -7 8
-11 6 -18 -9 -32 -16 -15 -22 -16 -35 -5 -11 9 -14 22 -10 38 4 16 0 31 -11
43 -21 24 -10 38 16 21 26 -16 26 0 0 23 -11 10 -20 31 -20 47 0 19 -4 28 -12
25 -8 -2 -12 -15 -10 -30 3 -21 0 -26 -12 -21 -10 4 -19 -3 -27 -20 -15 -33
-64 -38 -54 -6 3 11 3 30 -1 42 l-7 23 -8 -23 c-5 -13 -6 -35 -3 -48 7 -26 -5
-31 -24 -12 -8 8 -15 8 -27 -2 -21 -17 -29 -7 -16 18 6 12 11 31 10 44 0 13
-3 17 -6 11 -2 -7 -11 -13 -18 -13 -15 0 -25 -22 -25 -56 0 -20 5 -24 30 -24
30 0 42 -21 20 -35 -5 -3 -10 -11 -10 -16 0 -15 113 -7 118 9 2 7 -5 12 -17
12 -13 0 -21 6 -21 16 0 13 6 15 33 9 17 -3 44 -7 60 -7 29 -1 35 -16 15 -36
-10 -10 -7 -16 10 -28 25 -17 29 -42 7 -50 -8 -4 -15 -12 -15 -20 0 -8 -4 -14
-10 -14 -5 0 -10 -9 -10 -20 0 -11 -4 -20 -10 -20 -5 0 -7 -6 -4 -13 6 -15
-14 -56 -39 -81 -15 -15 -21 -16 -53 -4 -35 12 -54 39 -63 86 -1 4 -5 1 -10
-7 -12 -19 -67 -5 -86 22 l-15 21 0 -23 c0 -20 -4 -22 -25 -17 -18 5 -25 2
-25 -8 0 -9 -10 -21 -22 -27 -14 -8 -18 -14 -10 -17 18 -6 15 -34 -5 -30 -9 2
-21 17 -27 35 -13 36 -32 60 -22 26 6 -18 3 -23 -12 -23 -11 0 -25 7 -32 15
-21 25 -30 17 -14 -12 7 -16 14 -36 14 -45 0 -10 7 -18 15 -18 20 0 19 -19 0
-26 -22 -9 -43 13 -47 49 -3 27 -5 29 -12 12 -19 -47 -30 -65 -42 -65 -10 0
-12 12 -7 48 3 26 9 52 13 57 4 6 11 30 14 55 7 52 -2 36 -30 -52 -18 -57 -19
-58 -55 -58 -31 0 -38 4 -47 28 -6 15 -13 43 -14 62 l-3 35 -23 -39 c-20 -33
-27 -38 -52 -34 -31 5 -41 -8 -15 -18 36 -14 -2 -64 -48 -64 -30 0 -34 15 -13
43 23 30 9 57 -31 57 -19 0 -43 -5 -53 -10 -15 -8 -26 -4 -54 20 -29 26 -33
27 -29 10 5 -17 1 -20 -30 -20 -49 0 -67 9 -67 32 0 19 -4 20 -51 15 -50 -6
-51 -6 -46 18 2 14 -2 33 -9 42 -12 16 -13 16 -14 -9 0 -15 -5 -39 -10 -53 -8
-22 -15 -26 -34 -23 -18 4 -26 0 -29 -14 -6 -20 -32 -24 -43 -7 -3 6 -8 31 -9
56 -3 39 -10 52 -59 104 -31 32 -56 68 -56 79 0 11 -7 20 -15 20 -15 0 -10
-23 15 -71 17 -30 0 -22 -37 19 -22 23 -27 26 -14 8 12 -16 21 -34 21 -41 0
-7 7 -18 15 -25 10 -9 14 -31 14 -77 -1 -65 -1 -65 -28 -60 -14 3 -34 9 -43
12 -15 6 -18 1 -18 -28 0 -40 -22 -54 -62 -41 -21 6 -21 5 -9 -10 9 -11 23
-15 36 -12 20 5 21 2 20 -57 -1 -49 -4 -63 -17 -65 -9 -2 -22 6 -27 17 -7 12
-17 18 -26 15 -21 -8 -19 13 2 25 29 16 6 25 -27 11 l-30 -12 0 -204 0 -204
24 0 c32 0 42 17 16 25 -25 8 -26 25 -1 25 22 0 68 -51 77 -85 6 -23 26 -34
77 -40 33 -3 62 -25 34 -25 -28 0 -77 -29 -77 -45 0 -8 12 -18 26 -21 16 -4
23 -11 20 -21 -5 -11 2 -12 32 -7 34 7 36 6 23 -9 -11 -15 -11 -17 2 -17 8 0
20 7 27 16 11 13 10 16 -8 21 -12 3 -22 12 -22 20 0 12 8 14 36 10 l35 -6 -24
19 c-14 11 -28 31 -31 44 -4 15 -15 26 -28 28 -28 4 -36 28 -9 28 17 0 21 6
21 31 0 24 4 30 17 27 10 -2 20 -14 21 -27 6 -40 40 -85 64 -86 14 0 24 -7 26
-19 3 -14 0 -17 -13 -13 -13 5 -16 2 -13 -16 2 -15 9 -21 21 -19 27 5 20 -17
-9 -29 l-27 -10 23 -24 c16 -17 27 -22 34 -15 5 5 18 10 28 10 10 0 18 5 18
10 0 6 4 10 9 10 5 0 12 -24 15 -52 7 -51 28 -88 50 -88 6 0 5 5 -2 12 -17 17
-15 26 8 38 26 14 123 -4 146 -27 12 -12 18 -13 23 -4 9 13 87 5 109 -12 18
-14 27 0 12 19 -18 21 1 34 53 34 30 0 37 -4 37 -19 0 -24 30 -35 71 -26 20 5
38 2 54 -9 35 -23 32 -40 -5 -33 -29 6 -44 -2 -72 -42 -7 -10 -32 -21 -54 -24
-34 -6 -43 -4 -49 11 -7 15 -9 14 -15 -8 -16 -50 -12 -80 10 -80 12 0 20 7 20
16 0 12 6 15 24 10 16 -4 26 -1 30 9 8 22 24 18 28 -7 2 -17 16 -25 68 -39 36
-10 67 -15 69 -13 3 3 -5 8 -18 11 -20 5 -22 11 -18 38 4 27 2 34 -15 38 -11
3 -18 12 -16 19 7 20 78 18 115 -2 26 -15 32 -16 37 -4 3 8 12 14 20 14 8 0
23 12 34 27 23 31 47 26 62 -12 27 -68 33 -79 37 -68 2 6 -3 28 -11 48 -21 50
-20 71 5 112 16 26 19 37 10 46 -14 14 -31 -6 -31 -39 0 -12 -6 -27 -14 -33
-11 -9 -14 4 -18 79 -3 49 -11 96 -18 104 -6 8 -10 30 -8 48 2 25 -1 34 -14
36 -10 2 -18 -1 -18 -7 0 -6 -5 -11 -11 -11 -7 0 -10 12 -7 29 3 19 0 27 -8
24 -16 -6 -24 20 -31 94 -4 45 -11 67 -26 80 -20 17 -20 17 -12 -2 4 -11 10
-44 13 -74 4 -46 2 -53 -11 -48 -11 4 -18 -5 -25 -34 -6 -22 -6 -39 -1 -39 10
0 12 -103 2 -113 -3 -4 -21 10 -39 31 -37 44 -123 92 -164 92 -34 0 -80 35
-80 61 0 18 -5 20 -44 14 -45 -7 -90 1 -82 14 3 4 -9 16 -27 26 l-32 18 23
-22 c25 -25 29 -59 7 -67 -23 -9 -137 14 -153 30 -10 10 -13 25 -8 49 5 28 12
36 35 40 24 5 28 10 24 27 -8 31 32 26 66 -10 25 -26 30 -28 41 -15 17 20 33
19 28 -2 -4 -16 2 -18 45 -14 40 2 53 -1 64 -15 7 -10 13 -12 13 -6 0 17 27
15 34 -3 3 -8 17 -15 30 -15 18 0 24 -4 20 -14 -4 -10 4 -16 24 -21 17 -3 33
-13 36 -21 3 -8 16 -14 28 -14 13 0 34 -9 48 -20 35 -28 43 -25 25 10 -14 27
-102 80 -132 80 -19 0 -37 30 -25 42 8 8 20 6 45 -6 19 -9 45 -16 57 -16 21 0
22 3 16 46 -4 32 -1 52 9 68 9 13 14 38 13 56 -4 47 19 59 72 35 36 -16 47
-17 87 -6 32 8 49 9 57 1 16 -16 63 -12 81 7 14 14 20 14 38 4 17 -11 21 -11
29 3 5 9 21 16 35 16 l26 0 -21 23 c-44 47 -21 81 30 45 18 -13 34 -23 36 -24
1 -1 12 -34 23 -75 20 -73 20 -92 -6 -164 -6 -18 -5 -18 5 -2 6 9 17 17 25 17
22 0 29 -21 12 -37 -13 -14 -13 -17 4 -34 10 -10 19 -30 19 -42 0 -13 13 -44
30 -68 16 -24 30 -51 30 -60 0 -23 24 -41 45 -33 15 6 17 3 13 -19 -4 -20 2
-33 24 -54 l29 -28 19 25 c11 14 29 44 40 68 19 41 50 57 50 27 0 -8 14 -18
33 -23 27 -7 33 -6 35 9 2 10 -2 27 -7 38 -16 29 -13 69 6 79 12 7 14 18 10
40 -4 17 -2 34 3 37 15 9 12 35 -4 35 -22 0 -27 16 -15 44 15 31 34 35 26 5
-12 -45 10 -2 29 56 10 33 40 101 67 152 26 51 47 101 47 112 0 19 -1 19 -29
3 -17 -9 -33 -13 -38 -8 -4 5 -2 11 5 13 6 3 12 11 12 18 0 7 11 20 24 29 22
14 23 18 13 51 -10 32 -27 48 -27 25 0 -5 -5 -10 -11 -10 -7 0 -9 8 -4 23 3
12 9 33 11 47 4 25 4 25 -7 3 -15 -29 -39 -30 -39 -2 0 11 -5 17 -10 14 -6 -3
-7 -17 -4 -31 7 -27 -5 -31 -38 -13 -14 8 -23 8 -31 0 -8 -8 -7 -11 2 -11 18
0 8 -77 -12 -97 -19 -19 -57 -1 -57 27 0 10 -4 22 -10 25 -6 3 -10 -5 -10 -18
0 -14 -7 -28 -16 -31 -24 -9 -27 -2 -16 37 5 18 6 40 2 48 -4 8 -5 33 -2 57 5
49 25 56 41 15 10 -26 10 -25 9 17 -3 83 1 98 23 105 14 5 25 2 30 -6 14 -23
10 -49 -7 -49 -14 0 -14 -3 -4 -15 7 -8 19 -15 27 -15 12 0 14 7 9 33 -19 86
-19 97 -3 97 23 0 40 -36 35 -76 -4 -38 6 -44 22 -13 8 15 8 24 0 34 -7 8 -9
18 -6 24 3 5 0 11 -6 14 -10 3 -10 9 -1 24 10 18 9 19 -14 15 -23 -4 -25 -2
-20 17 3 11 1 21 -5 21 -6 0 -7 11 -4 25 4 14 2 25 -3 25 -5 0 -11 -10 -15
-22z m-1436 -933 c25 0 56 -6 70 -12 14 -6 34 -12 45 -14 11 -3 21 -14 23 -26
3 -20 -2 -22 -81 -28 -65 -6 -94 -3 -132 10 -73 24 -83 36 -46 51 17 7 31 18
31 25 0 7 8 9 23 4 12 -5 42 -9 67 -10z"/>
<path d="M12280 6552 c0 -17 -6 -35 -13 -39 -21 -13 -44 -56 -51 -98 -13 -70
-37 -129 -62 -155 -13 -14 -46 -59 -73 -101 -27 -42 -79 -117 -117 -165 -110
-145 -135 -188 -128 -223 6 -29 5 -31 -24 -31 -25 0 -35 -6 -47 -30 -14 -27
-14 -30 0 -30 25 0 17 -18 -15 -35 -33 -17 -51 -41 -74 -96 -15 -36 -15 -36 9
-31 14 2 25 9 25 14 0 5 5 6 11 2 6 -3 9 -17 6 -30 -5 -30 -1 -31 144 -39 64
-4 122 -11 128 -15 18 -10 -43 -33 -68 -25 -18 5 -18 4 -8 -19 8 -16 16 -21
21 -15 15 14 56 11 56 -5 0 -14 -68 -66 -88 -66 -6 0 -21 -10 -32 -22 l-21
-23 48 -5 c54 -6 90 6 99 33 7 23 53 77 66 77 10 0 7 -42 -7 -90 -7 -23 -6
-23 6 -8 9 12 22 16 37 12 17 -5 22 -14 22 -38 0 -18 -6 -41 -14 -52 -10 -13
-11 -23 -4 -31 6 -8 4 -32 -7 -74 -17 -70 -23 -79 -34 -61 -6 10 -11 10 -21
-3 -16 -19 -39 -20 -46 -1 -4 11 -10 11 -29 2 -30 -13 -38 -32 -25 -54 8 -14
9 -12 10 11 0 34 23 32 28 -1 2 -12 10 -22 18 -22 8 0 14 -9 14 -20 0 -11 -4
-20 -10 -20 -5 0 -10 -4 -10 -10 0 -5 7 -10 16 -10 16 0 16 -2 -3 -47 -3 -7
-1 -13 5 -13 14 0 62 58 62 76 0 17 5 17 29 4 18 -9 23 -39 25 -143 0 -27 4
-36 13 -32 7 3 20 8 29 11 11 5 15 2 12 -12 -2 -12 5 -23 20 -29 13 -5 25 -20
28 -31 3 -12 16 -27 29 -34 14 -7 22 -17 18 -22 -6 -11 -66 -6 -98 7 -18 7
-18 6 4 -18 19 -21 29 -24 57 -20 44 7 47 -17 3 -36 -26 -11 -32 -11 -47 2
-14 13 -105 57 -118 57 -2 0 -4 -5 -4 -12 0 -6 -8 -20 -17 -30 -16 -18 -15
-21 6 -65 l23 -47 -24 -19 c-22 -17 -22 -18 -1 -8 12 6 32 11 44 11 13 0 32 8
43 18 25 22 112 56 124 48 5 -3 28 3 50 14 63 30 72 27 53 -23 -5 -13 -19 -27
-30 -30 -12 -3 -24 -13 -27 -24 -4 -10 -13 -25 -21 -34 -12 -14 -12 -17 2 -22
8 -4 22 -4 30 -1 12 5 13 10 4 20 -9 11 -8 14 5 14 44 0 75 -43 41 -56 -17 -7
-10 -57 12 -89 17 -25 17 -69 -1 -84 -8 -7 -17 -22 -20 -35 -3 -14 -16 -26
-31 -30 -34 -9 -32 -39 3 -65 21 -16 23 -20 10 -21 -24 0 -23 -13 3 -36 17
-15 20 -26 15 -56 -3 -20 -2 -39 3 -42 10 -7 15 12 31 119 6 39 18 100 26 138
14 59 18 67 39 67 13 0 27 5 30 10 4 6 11 7 17 4 6 -4 9 -1 6 7 -3 8 -19 18
-36 23 -46 13 -39 23 21 29 60 6 65 4 47 -18 -10 -12 -10 -19 -2 -27 7 -7 12
-19 12 -27 0 -8 10 -34 21 -59 16 -33 19 -49 12 -65 -6 -12 -8 -37 -5 -55 10
-69 -79 -192 -140 -192 -22 -1 -22 -1 -3 -12 11 -6 43 -30 70 -53 61 -51 179
-112 234 -121 l41 -7 0 279 -1 279 -24 -30 c-26 -31 -32 -60 -15 -70 14 -9 13
-55 -2 -55 -6 0 -26 5 -45 12 -29 11 -35 10 -47 -7 -18 -25 -26 -17 -33 33 -5
34 -1 43 23 66 16 14 34 26 40 26 20 0 36 28 29 49 -3 12 -17 24 -31 27 l-24
6 34 39 c31 33 34 42 29 76 -3 21 -6 38 -7 39 -1 1 -16 4 -33 7 -29 6 -34 3
-39 -18 -3 -14 -10 -25 -15 -25 -5 0 -15 -11 -21 -25 -16 -36 -37 -31 -55 12
-21 52 -5 125 39 172 28 29 35 33 70 28 41 -5 78 -31 78 -52 0 -7 11 -15 25
-17 l25 -5 0 443 c0 272 -4 444 -9 444 -6 0 -16 12 -23 28 -7 15 -23 31 -35
37 -19 8 -21 15 -16 56 3 29 1 49 -6 53 -6 4 -11 19 -11 34 -1 37 -35 162 -46
170 -6 4 -11 16 -12 27 -5 71 -36 165 -55 165 -5 0 -8 27 -5 64 3 56 1 65 -17
77 -11 7 -27 12 -36 11 -12 -2 -19 14 -29 68 -8 44 -16 66 -22 58 -4 -7 -8
-23 -8 -35 0 -33 -16 -28 -29 7 -10 31 -31 41 -31 15 0 -8 -7 -15 -15 -15 -8
0 -31 -18 -51 -40 -21 -22 -43 -40 -51 -40 -19 0 -16 8 12 42 14 16 25 36 25
44 0 7 19 28 43 45 41 30 41 31 12 26 -16 -3 -42 -9 -57 -13 -21 -5 -29 -2
-35 12 -4 10 -2 19 5 22 7 2 12 12 12 22 0 12 10 20 33 24 l32 7 -25 14 -25
14 31 1 c18 0 45 -7 60 -15 33 -17 84 -20 84 -4 0 5 -22 34 -50 63 -27 29 -50
60 -50 69 0 10 -6 14 -14 11 -9 -3 -17 3 -21 15 -5 17 -9 19 -30 9 -19 -8 -28
-8 -40 2 -13 11 -15 8 -15 -18z"/>
<path d="M2000 5965 c0 -9 7 -18 15 -21 21 -9 19 -24 -4 -24 -10 0 -22 -8 -26
-17 -11 -24 -14 -108 -4 -92 6 10 12 9 27 -4 20 -19 42 -22 42 -7 0 5 10 19
23 30 13 13 22 34 23 53 1 27 -6 38 -41 65 -47 36 -55 38 -55 17z"/>
<path d="M1626 5710 c5 -14 9 -41 9 -60 0 -19 6 -41 13 -48 6 -7 12 -27 12
-43 0 -17 5 -51 12 -76 10 -43 10 -47 -13 -64 -13 -10 -42 -27 -64 -38 -22
-11 -34 -20 -27 -21 7 0 25 -13 40 -30 26 -28 29 -29 72 -19 41 9 46 8 62 -12
25 -30 22 -42 -8 -35 -19 5 -25 3 -21 -6 2 -7 11 -12 20 -10 21 4 67 -26 67
-44 0 -8 5 -14 10 -14 19 0 10 42 -10 47 -35 9 -16 28 28 28 22 0 44 3 48 8 4
4 27 7 51 7 38 0 45 -3 54 -27 8 -22 7 -36 -5 -61 -21 -44 -20 -49 5 -26 16
14 23 16 26 6 3 -6 9 -10 14 -6 5 3 15 2 21 -2 7 -5 28 -7 47 -5 32 3 33 1 27
-23 -4 -15 -2 -26 4 -26 12 0 30 64 18 68 -16 7 -7 20 24 33 24 10 33 10 36 1
2 -7 16 -12 31 -12 76 0 66 -92 -16 -140 -33 -19 -39 -20 -72 -8 -41 16 -132
10 -96 -6 11 -5 33 -9 49 -10 16 0 31 -7 33 -13 4 -10 -13 -13 -59 -14 -52 0
-59 -2 -38 -10 14 -6 36 -20 49 -32 l24 -22 -7 28 c-6 26 -5 27 19 21 18 -4
27 -2 31 11 6 14 11 7 24 -26 14 -37 20 -44 41 -41 13 1 25 7 27 12 9 26 46
61 59 55 12 -4 14 0 10 15 -6 23 12 27 32 8 10 -11 17 -7 37 17 27 33 32 54 9
35 -8 -7 -15 -19 -15 -26 0 -8 -7 -14 -15 -14 -19 0 -31 48 -16 63 17 17 13
44 -10 60 -11 8 -19 21 -18 28 2 8 -5 28 -14 46 -9 18 -17 39 -17 48 0 8 -6
15 -14 15 -8 0 -16 7 -20 15 -3 8 -12 15 -20 15 -8 0 -16 5 -18 10 -2 6 -14 7
-35 1 -30 -9 -86 -4 -203 17 -84 15 -92 42 -12 42 43 0 45 1 30 17 -14 13 -20
14 -32 4 -12 -10 -17 -9 -25 8 -6 11 -11 28 -11 38 -1 16 -2 16 -13 2 -13 -17
-127 -33 -127 -18 0 5 -11 11 -24 15 -16 4 -26 15 -30 34 -3 16 -15 39 -26 50
-11 11 -20 29 -20 40 0 30 -30 113 -47 130 -14 13 -14 12 -7 -10z"/>
<path d="M392 5559 c-24 -9 -22 -29 4 -29 25 0 15 -18 -16 -29 -54 -18 -32
-41 41 -41 28 0 37 4 33 14 -11 28 26 25 60 -5 31 -27 37 -28 62 -17 22 10 28
10 32 0 2 -7 13 -10 26 -6 16 4 25 0 29 -10 4 -9 12 -16 19 -16 9 0 9 3 -2 10
-12 7 -12 12 -2 22 6 6 12 22 12 35 0 33 19 28 27 -7 5 -25 10 -30 35 -30 22
0 29 -4 26 -17 -1 -10 1 -24 6 -31 5 -8 1 -21 -9 -32 -11 -12 -15 -28 -12 -41
3 -13 1 -45 -5 -72 -7 -35 -7 -52 1 -60 18 -18 13 -41 -19 -83 -16 -21 -30
-44 -30 -51 0 -18 -21 -27 -30 -14 -5 8 -12 4 -23 -12 -16 -24 -15 -25 13 -29
18 -3 31 1 34 9 7 17 99 18 94 1 -3 -7 -15 -15 -29 -18 l-24 -6 25 -14 c14 -8
33 -13 43 -11 10 1 17 -4 17 -13 0 -12 11 -16 50 -16 28 0 67 -7 87 -15 19 -8
44 -15 54 -15 20 0 59 -33 59 -50 0 -18 -29 -11 -40 10 -6 11 -16 18 -21 14
-7 -4 -7 -10 0 -17 20 -20 11 -29 -26 -25 -21 3 -51 1 -67 -3 -32 -9 -102 3
-120 21 -8 8 -6 15 8 26 19 13 18 14 -11 14 -17 0 -36 -7 -44 -16 -16 -19 -64
-45 -104 -55 -21 -6 -11 -7 35 -5 36 1 72 5 80 9 19 9 60 -19 45 -30 -22 -17
-9 -53 28 -78 20 -14 37 -30 37 -35 0 -12 -37 -14 -42 -2 -5 11 -69 57 -103
73 -22 11 -48 12 -98 7 -58 -5 -72 -11 -96 -37 -16 -17 -37 -31 -48 -32 -10 0
-13 -3 -5 -6 19 -7 14 -31 -8 -38 -10 -3 -35 -3 -54 1 -49 9 -88 -2 -84 -24 2
-13 17 -18 57 -22 63 -6 75 -22 31 -40 -33 -14 -36 -20 -17 -39 10 -10 9 -14
-5 -22 -10 -6 -18 -19 -18 -29 0 -15 7 -20 28 -20 l27 -1 -27 -20 c-22 -17
-26 -24 -18 -39 6 -10 10 -34 10 -54 0 -37 21 -66 48 -67 13 0 11 -3 -5 -11
-28 -13 -28 -15 -3 -55 13 -23 27 -33 44 -33 29 0 96 -27 96 -39 0 -4 -7 -23
-16 -40 -13 -26 -21 -32 -40 -28 -20 3 -22 2 -13 -9 6 -8 23 -14 37 -14 14 0
36 -9 48 -21 21 -20 23 -20 49 -3 30 20 29 48 -3 52 -22 3 -32 22 -12 22 6 0
22 12 35 26 18 19 39 27 91 35 76 11 85 14 55 24 -12 3 -21 15 -21 25 0 26 43
36 85 21 43 -15 48 -14 42 9 -4 15 0 20 15 20 10 0 16 5 13 10 -3 6 -17 10
-31 10 -13 0 -24 5 -24 10 0 6 16 10 36 10 32 0 34 1 20 16 -39 38 -9 45 38 9
28 -22 37 -24 63 -15 44 16 87 -2 78 -33 -4 -12 -14 -27 -21 -33 -10 -8 -13
-21 -8 -39 6 -25 5 -27 -14 -23 -12 4 -26 0 -33 -8 -6 -8 -20 -14 -30 -14 -10
0 -20 -4 -23 -9 -3 -4 -37 -18 -75 -31 -56 -18 -68 -25 -64 -40 3 -12 -2 -20
-16 -25 -30 -9 -81 -54 -81 -71 0 -19 53 -44 95 -44 19 0 35 -4 35 -10 0 -17
-36 -29 -126 -40 -49 -6 -99 -14 -112 -17 -37 -9 -84 -83 -52 -83 6 0 10 6 10
14 0 19 48 56 72 56 10 0 39 -11 64 -25 47 -26 74 -32 74 -15 0 6 -7 10 -15
10 -21 0 -19 13 5 35 16 14 22 15 35 5 12 -10 21 -8 51 15 27 21 53 30 103 35
36 4 69 5 74 3 12 -7 39 69 34 96 -3 14 1 37 8 51 22 40 19 53 -11 46 -30 -8
-54 8 -54 36 0 16 5 19 20 14 11 -3 29 -9 39 -12 14 -4 21 0 26 15 7 22 16 26
29 14 4 -4 17 -8 28 -8 30 0 34 -23 6 -34 -40 -15 -75 -146 -45 -168 6 -5 42
-20 80 -32 64 -21 70 -22 119 -7 47 14 53 14 64 -2 20 -25 17 -62 -3 -62 -10
0 -25 -5 -33 -10 -11 -8 -8 -9 12 -4 14 3 36 1 47 -6 19 -10 21 -8 21 19 0 43
9 61 32 61 14 0 18 -5 14 -18 -5 -14 4 -20 46 -30 48 -11 54 -10 73 8 26 26
122 90 134 90 5 0 11 10 13 22 2 15 19 31 46 46 33 19 42 28 36 41 -4 9 -12
58 -18 109 l-10 92 -83 0 c-51 0 -83 4 -83 10 0 6 -11 3 -24 -7 -30 -22 -25
-30 31 -55 77 -34 70 -67 -16 -73 -40 -2 -60 -10 -80 -28 -14 -14 -39 -31 -54
-36 -33 -13 -183 -15 -191 -3 -4 7 59 200 69 210 3 3 11 -1 19 -8 10 -8 29
-10 55 -5 31 5 44 13 55 35 14 28 13 29 -15 35 -16 4 -38 4 -49 0 -13 -4 -31
0 -45 9 -31 20 -34 56 -5 56 11 0 20 5 20 10 0 15 53 12 94 -5 40 -17 45 -29
19 -40 -16 -6 -15 -8 7 -17 18 -6 27 -5 35 4 6 7 36 14 70 16 65 3 144 20 160
33 5 6 1 9 -10 9 -23 0 -85 36 -85 48 0 10 220 -21 239 -32 6 -4 11 -13 11
-21 0 -18 13 -25 89 -50 36 -12 66 -26 68 -32 2 -6 -16 -14 -42 -17 -25 -4
-45 -11 -45 -17 0 -5 -16 -9 -35 -9 -20 0 -49 -7 -65 -15 -26 -13 -29 -19 -23
-46 4 -20 1 -34 -7 -39 -20 -12 -3 -58 27 -73 25 -14 29 -12 84 29 53 41 62
44 118 44 61 0 71 -6 50 -27 -9 -9 1 -29 38 -80 27 -37 78 -117 114 -177 41
-69 100 -148 163 -218 54 -60 99 -108 101 -106 1 2 -1 34 -4 72 -6 60 -10 72
-37 95 -39 35 -50 61 -25 61 14 0 17 6 13 26 -5 30 27 104 46 104 7 0 10 5 7
10 -3 6 2 10 12 10 17 1 17 1 0 14 -28 21 -20 29 23 22 22 -3 40 -5 40 -2 0 4
-77 56 -84 56 -2 0 -6 -9 -9 -21 -4 -16 -11 -19 -26 -14 -25 8 -29 -16 -6 -35
8 -7 15 -16 15 -21 0 -13 -54 -11 -67 2 -12 12 -43 -14 -43 -37 0 -27 -19 -14
-30 22 -16 48 -6 140 21 204 l21 48 -32 67 c-40 85 -46 121 -26 170 9 21 14
40 12 43 -14 13 -146 52 -179 52 -51 0 -61 27 -54 143 4 53 2 85 -4 82 -5 -4
-9 -15 -9 -26 0 -10 -5 -19 -10 -19 -7 0 -7 -6 0 -19 15 -29 12 -71 -5 -77
-13 -5 -12 -10 5 -31 11 -14 20 -34 20 -44 0 -24 -44 -25 -116 -5 -27 8 -68
17 -92 21 -25 4 -48 15 -56 27 -20 28 -81 68 -105 68 -25 0 -36 17 -22 34 9
11 2 12 -38 8 -40 -4 -60 1 -112 27 -35 17 -97 37 -136 46 -107 22 -147 40
-140 65 5 19 -3 24 -30 21 -6 -1 -14 3 -18 9 -6 9 37 33 97 53 11 4 15 12 12
22 -8 19 -24 20 -24 0 0 -18 -39 -35 -81 -35 -16 0 -29 -4 -29 -10 0 -5 -9
-19 -20 -30 l-20 -20 20 0 c28 0 25 -15 -7 -29 -22 -10 -28 -10 -35 3 -6 11
-24 16 -58 16 -42 0 -50 3 -50 19 0 10 7 24 15 31 21 18 19 22 -23 50 -20 13
-39 25 -41 27 -2 1 2 9 9 18 10 13 9 15 -9 15 -25 0 -26 2 -4 43 9 18 19 48
23 68 l7 35 -36 -8 c-20 -4 -48 -10 -63 -13 -19 -4 -30 -13 -34 -30 -3 -14
-12 -25 -20 -25 -16 0 -19 -21 -5 -35 15 -16 1 -65 -18 -65 -25 0 -61 42 -61
71 1 24 1 24 26 -6 l25 -30 -8 30 c-14 57 -10 80 15 83 28 4 30 38 1 47 -14 5
-19 13 -16 25 3 11 -3 26 -13 35 -18 16 -18 15 -4 -31 8 -26 14 -53 14 -61 0
-19 -27 -16 -38 4 -16 27 -35 -21 -28 -69 l6 -39 -37 6 c-57 10 -60 11 -67 41
-6 21 -1 33 19 54 19 20 23 29 13 32 -11 4 -11 8 1 21 12 15 11 17 -3 17 -23
0 -21 54 3 94 17 27 18 39 9 101 -5 39 -8 85 -6 103 4 30 2 32 -28 32 -18 0
-34 -5 -36 -12 -3 -9 -13 -8 -39 2 -19 8 -43 13 -55 12 -11 -2 -27 4 -34 12
-17 21 -31 20 -23 0 5 -14 1 -16 -20 -12 -15 3 -27 1 -27 -3 0 -14 -28 -11
-33 4 -3 8 -9 6 -19 -7 -17 -22 -45 -16 -56 13 -5 15 -12 17 -30 10z"/>
<path d="M215 4820 c-11 -5 -53 -9 -92 -9 -73 -1 -90 -11 -54 -31 34 -18 20
-73 -24 -90 -15 -7 -7 -9 28 -9 34 -1 54 5 68 18 13 12 17 21 10 26 -31 19 12
35 53 19 18 -7 22 -34 6 -34 -7 0 -7 -7 1 -21 7 -13 9 -43 6 -73 -5 -42 -4
-46 4 -23 6 15 16 27 22 27 8 0 7 4 -1 12 -14 14 -16 58 -2 58 20 0 47 33 43
51 -10 37 37 8 49 -31 4 -12 7 -10 16 7 11 19 8 25 -21 47 -19 15 -38 26 -42
26 -5 0 -18 8 -29 19 -15 13 -27 16 -41 11z"/>
<path d="M0 4583 l0 -68 37 -12 c50 -15 66 -8 58 28 -5 23 -3 29 9 29 15 0 55
65 45 74 -2 2 -37 7 -76 11 l-73 7 0 -69z"/>
<path d="M153 4460 c-4 -14 -14 -20 -33 -20 -15 0 -48 -3 -74 -6 l-46 -7 0
-53 0 -54 35 0 c19 0 35 -4 35 -10 0 -5 -6 -10 -12 -10 -7 0 -19 -4 -27 -9
-12 -8 -12 -13 3 -36 18 -28 41 -30 104 -10 17 6 22 4 22 -12 0 -20 -24 -45
-54 -56 -16 -7 -16 -9 3 -33 21 -26 29 -84 13 -84 -5 0 -14 12 -21 27 l-12 26
-45 -43 c-37 -37 -44 -50 -44 -82 0 -22 5 -38 12 -38 6 0 19 -7 29 -16 22 -20
52 -11 74 23 14 21 15 30 6 45 -6 10 -11 22 -11 28 0 16 27 12 34 -5 8 -21 23
-19 29 5 4 15 14 20 41 20 19 0 50 9 68 21 28 18 29 20 8 14 -14 -4 -38 -8
-54 -9 -26 -1 -31 3 -37 32 -10 50 -17 49 -12 -3 4 -27 2 -45 -5 -45 -32 0
-57 125 -26 137 8 3 21 0 28 -6 9 -7 15 -8 18 -2 5 15 60 18 65 4 3 -7 -7 -15
-21 -19 -14 -3 -26 -10 -26 -15 0 -13 34 -11 47 2 7 7 19 8 30 4 10 -5 21 -7
26 -7 4 1 7 -5 7 -13 0 -14 3 -13 25 1 14 9 36 14 50 12 31 -6 34 16 4 33 -15
7 -20 18 -16 34 3 18 -1 25 -16 27 -28 4 -34 28 -8 35 38 10 17 28 -28 25 -22
-2 -41 -1 -41 2 0 2 16 14 35 26 19 12 35 30 35 39 0 29 -33 51 -76 51 -44 0
-57 7 -67 33 -9 25 -67 23 -74 -3z"/>
<path d="M2498 4435 c2 -19 10 -40 18 -46 8 -6 14 -15 14 -20 0 -13 -34 -11
-49 4 -10 10 -11 9 -6 -5 4 -11 2 -18 -4 -18 -12 0 30 -81 55 -109 11 -12 14
-10 19 12 9 36 100 90 93 55 -4 -19 92 -34 103 -17 14 23 11 29 -16 29 -20 0
-25 5 -25 25 0 14 -4 25 -10 25 -9 0 -14 -14 -11 -32 0 -5 -6 -8 -14 -8 -11 0
-15 11 -15 40 0 49 -18 53 -43 10 -23 -39 -52 -27 -52 21 0 26 -6 36 -30 51
l-31 17 4 -34z"/>
<path d="M2816 4065 c4 -17 1 -27 -10 -31 -11 -4 -14 -14 -9 -36 5 -26 3 -29
-13 -26 -13 2 -22 16 -28 46 -11 54 -23 53 -33 0 -6 -32 -14 -44 -29 -46 -16
-2 -20 -8 -16 -27 2 -13 13 -27 23 -30 12 -4 19 -16 19 -31 0 -29 11 -31 27
-5 6 10 23 21 37 23 22 5 25 1 29 -31 l3 -36 19 43 c10 23 22 42 26 42 5 0 3
12 -3 26 -9 20 -9 30 0 45 10 16 8 26 -14 59 -31 46 -37 50 -28 15z"/>
<path d="M1535 3813 c-38 -46 -122 -99 -100 -63 11 18 -121 12 -139 -6 -19
-19 -21 -50 -3 -57 8 -4 6 -6 -4 -6 -9 -1 -26 -10 -39 -21 -26 -22 -80 -40
-125 -40 -16 0 -40 -6 -51 -13 -12 -6 -39 -22 -60 -35 l-39 -23 64 7 c43 4 61
3 57 -4 -3 -6 -20 -13 -36 -17 -16 -4 -32 -11 -35 -16 -9 -14 -65 -11 -66 4 0
6 -4 2 -9 -10 -6 -16 -26 -27 -64 -38 -31 -9 -60 -14 -65 -10 -5 3 -21 -6 -35
-20 -14 -14 -33 -25 -42 -25 -34 0 -276 -132 -361 -197 -26 -20 -58 -42 -70
-48 -13 -7 -88 -71 -168 -144 l-145 -132 0 -285 0 -285 23 6 c12 4 32 13 44
21 12 8 29 14 37 14 7 0 17 7 20 15 3 9 19 21 35 26 20 7 28 15 24 25 -4 11 6
14 51 14 51 0 58 3 96 41 22 22 40 47 40 55 0 8 10 14 23 14 13 0 32 7 43 15
10 8 27 15 36 15 10 0 33 14 51 30 19 17 41 30 50 30 8 0 17 7 21 15 3 8 15
15 26 15 12 0 25 10 31 23 6 13 30 34 55 47 24 14 44 30 44 37 0 7 11 13 25
13 18 0 26 7 31 25 5 19 12 25 28 23 17 -2 21 2 21 27 0 27 4 31 41 39 37 7
43 13 53 46 15 52 37 69 56 44 13 -18 14 -18 24 9 6 15 18 27 29 27 9 0 26 6
37 13 12 8 41 13 70 12 36 -2 57 3 74 17 13 10 32 16 41 13 10 -3 23 1 30 10
7 8 21 15 31 15 11 0 19 5 19 10 0 6 15 10 34 10 19 0 38 5 41 10 3 6 15 10
26 10 10 0 19 6 19 14 0 10 16 17 45 22 30 4 49 13 56 26 8 14 18 19 35 15 17
-3 33 5 59 31 19 19 37 43 40 53 4 11 11 19 16 19 5 0 9 6 9 13 0 6 9 23 20
37 11 14 20 33 20 43 0 9 7 17 15 17 9 0 18 12 21 30 9 40 28 54 68 47 24 -4
39 -1 47 9 8 10 21 13 37 9 l24 -6 -19 33 c-10 18 -24 40 -31 50 -9 11 -10 18
-2 23 15 9 2 25 -21 25 -11 0 -32 13 -47 28 -15 15 -45 41 -67 57 -22 16 -57
44 -78 62 -34 30 -42 33 -100 32 -59 0 -64 -2 -92 -36z"/>
<path d="M4547 3180 c-26 -16 -50 -37 -53 -45 -4 -8 1 -75 10 -147 8 -73 18
-180 22 -236 l6 -104 37 -14 c20 -8 43 -19 53 -24 12 -7 20 -3 31 14 14 20 13
35 -9 146 -14 68 -27 127 -30 132 -3 5 0 62 7 127 10 99 10 122 -2 149 -8 18
-16 32 -19 32 -4 0 -27 -13 -53 -30z"/>
<path d="M2933 3194 c-17 -8 14 -55 31 -48 15 6 70 -80 63 -99 -2 -7 6 -25 18
-42 12 -16 26 -41 30 -55 4 -14 14 -32 21 -41 8 -8 21 -33 29 -55 l15 -39 -4
37 c-3 21 -21 65 -40 98 -20 34 -36 68 -36 76 0 8 -7 26 -16 40 -35 52 1 36
57 -26 33 -36 57 -57 53 -47 -7 20 6 22 26 5 16 -16 -28 39 -92 114 -27 30
-48 58 -48 62 0 12 24 6 43 -11 19 -17 20 -17 8 5 -7 13 -21 22 -35 22 -13 0
-43 2 -67 5 -24 2 -50 2 -56 -1z"/>
<path d="M5745 2846 c-34 -15 -98 -36 -109 -36 -4 0 -4 5 -1 10 12 19 -10 9
-34 -15 -13 -14 -32 -25 -42 -25 -11 0 -23 -10 -28 -23 -5 -12 -32 -37 -60
-55 -56 -37 -70 -52 -47 -52 17 0 19 -12 10 -48 -4 -14 -12 -21 -20 -18 -20 8
-100 -65 -96 -86 2 -10 -1 -18 -7 -18 -7 0 -9 -10 -5 -25 3 -14 2 -25 -2 -25
-5 0 -9 -16 -10 -35 0 -19 4 -35 9 -35 5 0 18 -11 29 -25 11 -14 25 -25 32
-25 7 0 37 -17 67 -38 98 -69 360 -176 379 -155 18 19 33 195 37 449 l5 271
-23 5 c-13 3 -31 8 -39 12 -8 3 -28 0 -45 -8z"/>
<path d="M7744 2396 c-10 -40 -1 -71 19 -68 10 2 17 -3 17 -12 0 -20 -10 -25
-59 -30 -24 -2 -48 -11 -58 -23 -10 -11 -33 -26 -51 -33 -28 -11 -35 -10 -50
3 -28 25 -62 18 -62 -13 0 -14 -5 -31 -12 -38 -7 -7 -10 -12 -7 -12 10 0 201
73 292 112 109 46 105 36 38 111 -31 34 -59 35 -67 3z"/>
<path d="M10400 2345 c0 -11 -11 -15 -35 -15 -22 0 -38 -6 -41 -15 -4 -8 -16
-15 -29 -15 -12 0 -30 -9 -40 -20 -21 -23 -41 -26 -48 -7 -3 9 -9 9 -23 1 -24
-14 -30 -34 -10 -34 9 0 16 5 16 10 0 6 5 10 11 10 14 0 5 -56 -12 -77 -18
-21 -42 -16 -36 7 3 13 0 20 -8 20 -8 0 -17 -9 -20 -20 -8 -26 -23 -25 -50 3
-12 12 -32 30 -44 40 -13 10 -20 25 -17 33 8 20 -17 17 -47 -6 -20 -16 -30
-18 -52 -10 -14 5 -27 10 -28 10 -1 0 -3 -12 -3 -27 -2 -48 -16 -107 -29 -123
-7 -8 -16 -26 -20 -40 -7 -22 -6 -23 9 -11 14 12 16 11 16 -4 0 -9 -9 -28 -20
-42 -11 -14 -20 -35 -20 -45 0 -11 -12 -53 -26 -93 -14 -41 -24 -80 -21 -87 4
-9 6 -7 6 5 1 10 9 17 21 17 20 0 24 10 20 61 -1 15 9 38 23 54 20 24 26 26
46 16 12 -7 25 -10 29 -7 3 3 0 6 -6 6 -7 0 -12 7 -12 15 0 8 5 15 10 15 6 0
10 13 10 29 0 17 6 31 16 35 11 4 14 14 9 35 -5 25 -4 29 12 25 13 -4 21 3 30
25 12 33 39 41 61 19 9 -9 12 -9 12 0 0 7 6 12 14 12 20 0 27 -70 10 -97 -8
-12 -14 -31 -14 -42 0 -11 -9 -25 -19 -31 -11 -5 -22 -24 -26 -41 -4 -19 -15
-33 -26 -36 -10 -3 -19 -14 -19 -24 0 -11 -6 -19 -12 -19 -7 -1 0 -8 15 -16
32 -17 31 -37 -1 -42 -22 -3 -32 -22 -12 -22 6 0 10 -9 10 -20 0 -13 -9 -22
-26 -26 -16 -4 -23 -12 -20 -20 3 -8 0 -19 -8 -26 -15 -14 -9 -58 10 -65 8 -3
14 -18 14 -34 0 -16 4 -29 9 -29 4 0 6 11 4 24 -4 17 1 28 16 38 12 7 21 20
21 30 0 25 18 32 36 14 11 -11 14 -25 9 -46 -9 -42 1 -37 16 8 39 120 151 363
223 485 102 173 140 247 126 247 -5 0 -10 -7 -10 -15z"/>
<path d="M7898 2288 c-41 -63 -59 -113 -63 -176 l-5 -67 14 60 c20 92 61 175
85 175 24 0 71 -37 71 -56 0 -19 41 -44 71 -44 15 0 31 -6 36 -12 19 -24 23
-84 12 -163 -13 -95 -41 -173 -75 -210 -22 -24 -29 -26 -50 -16 -13 6 -24 8
-24 6 0 -3 37 -23 83 -46 45 -23 95 -51 111 -62 28 -20 29 -20 43 -1 28 37 63
113 74 161 13 57 29 337 22 376 -4 18 -21 37 -49 57 -24 16 -44 25 -44 20 0
-4 -9 -29 -20 -55 l-20 -46 -29 20 c-40 29 -192 101 -212 101 -9 0 -23 -10
-31 -22z"/>
<path d="M8345 2098 c-2 -7 -8 -70 -13 -139 -10 -127 -11 -133 -88 -314 -2 -5
23 -20 56 -33 62 -24 81 -22 110 12 12 16 70 23 70 9 0 -4 -10 -17 -22 -31
-23 -23 -23 -24 -3 -38 34 -25 128 -51 133 -36 5 17 31 15 38 -3 10 -24 41
-18 48 10 7 29 26 34 26 8 0 -15 2 -16 10 -3 5 8 10 24 10 35 0 30 66 174 92
202 17 19 30 23 50 19 16 -3 42 -9 58 -12 36 -7 39 7 9 35 -35 33 -70 34 -130
6 -64 -29 -130 -32 -209 -9 -80 24 -105 55 -121 147 -7 42 -16 77 -20 77 -5 0
-19 10 -33 23 -35 32 -54 47 -61 47 -3 0 -7 -6 -10 -12z"/>
<path d="M1420 1203 c-23 -44 -75 -93 -98 -93 -20 0 -72 -81 -72 -113 0 -20
-8 -36 -26 -50 -15 -11 -33 -36 -41 -55 -13 -31 -12 -37 7 -68 32 -55 27 -64
-29 -64 -55 0 -77 -16 -36 -26 34 -8 32 -20 -7 -33 -17 -6 -29 -14 -25 -17 3
-3 22 0 43 8 34 12 37 12 52 -10 20 -30 30 -28 40 11 7 29 12 32 48 35 61 4
84 11 84 27 0 7 -9 17 -20 20 -11 3 -20 11 -20 16 0 15 32 10 51 -7 11 -10 33
-15 56 -14 122 6 153 4 173 -15 18 -16 19 -20 5 -27 -8 -5 -15 -15 -15 -22 0
-8 -7 -19 -15 -26 -13 -11 -21 -9 -46 9 -23 17 -34 20 -42 12 -16 -16 -62 -14
-77 4 -19 22 -30 18 -41 -14 -6 -17 -22 -34 -37 -40 -23 -9 -21 -10 16 -5 49
7 56 -7 15 -31 -16 -9 -19 -13 -8 -10 11 4 27 9 36 12 10 3 23 -12 42 -51 15
-30 27 -60 27 -66 0 -5 -15 -19 -32 -30 -39 -23 -88 -27 -88 -6 0 8 12 24 28
35 15 11 22 21 16 21 -6 0 -17 -7 -24 -15 -20 -24 -30 -18 -52 35 -11 27 -29
52 -39 55 -27 9 -23 22 9 33 17 7 21 11 10 11 -10 1 -18 6 -18 13 0 6 -11 1
-24 -11 -13 -13 -32 -21 -43 -19 -10 2 -43 -8 -74 -24 -30 -15 -71 -29 -90
-30 -38 -3 -74 -44 -57 -65 5 -7 7 -17 3 -23 -4 -6 8 -10 32 -10 21 0 48 -7
60 -15 12 -8 28 -12 37 -9 9 3 16 1 16 -5 0 -7 20 -11 50 -11 28 0 50 -4 50
-10 0 -5 -4 -10 -9 -10 -5 0 -33 -11 -62 -25 -31 -15 -42 -23 -26 -20 36 7 36
-15 -3 -88 -24 -45 -27 -56 -15 -61 10 -3 15 1 15 14 0 10 11 32 24 47 l24 28
24 -22 c13 -13 31 -23 39 -23 11 1 10 4 -3 14 -28 21 -21 35 20 42 20 4 55 15
77 26 l40 19 23 -28 c34 -43 39 -73 14 -94 -18 -14 -19 -18 -6 -23 9 -3 27 -6
40 -6 17 0 27 -8 34 -24 11 -30 30 -43 23 -16 -4 16 0 20 21 20 25 0 26 3 26
51 0 47 -2 51 -20 45 -11 -3 -30 -9 -42 -12 l-23 -7 24 27 c33 36 76 35 94 -2
26 -49 29 -132 7 -179 -22 -49 -9 -59 16 -12 14 27 20 31 50 27 29 -3 35 -1
43 25 6 16 14 26 19 23 5 -3 17 1 28 8 15 12 16 16 5 30 -11 13 -11 19 0 34
21 25 31 31 47 25 10 -4 12 -17 8 -52 -3 -25 -3 -39 1 -31 3 8 10 18 15 21 5
3 10 20 10 37 1 24 6 32 19 32 12 0 16 5 13 15 -3 8 1 22 10 30 9 9 16 22 16
29 0 7 15 18 33 24 l32 10 -44 1 c-30 1 -52 8 -73 26 -16 14 -34 23 -39 19 -5
-3 -9 1 -9 10 0 8 15 19 33 25 19 7 39 22 45 34 15 30 21 87 9 87 -5 0 -7 9
-4 20 5 18 3 19 -24 5 -37 -20 -90 -19 -134 2 -40 19 -46 46 -14 64 20 10 21
16 14 88 -4 42 -8 95 -10 119 -1 23 -10 51 -19 61 -9 9 -16 20 -16 23 0 8 -51
68 -126 148 -34 36 -70 79 -81 97 l-19 31 -24 -45z"/>
<path d="M867 300 c-3 -12 -13 -20 -26 -20 -12 0 -21 -6 -21 -15 0 -8 -17 -28
-37 -44 -21 -17 -47 -44 -58 -61 -24 -35 -39 -39 -30 -7 4 12 -5 3 -19 -20
-27 -43 -52 -58 -78 -48 -9 4 -19 -4 -28 -20 -7 -14 -19 -25 -25 -25 -7 0 -20
-9 -30 -20 -18 -20 -17 -20 33 -20 56 0 65 6 31 19 l-22 8 23 21 c13 12 32 22
43 22 32 0 60 20 137 100 67 69 82 80 143 99 l69 22 34 -20 c28 -17 34 -18 34
-5 0 8 -7 17 -15 20 -8 4 -15 13 -15 21 0 9 -5 11 -12 6 -20 -12 -99 -14 -113
-3 -9 8 -14 5 -18 -10z"/>
</g>
</svg>
