<?xml version="1.0" ?><!DOCTYPE svg  PUBLIC '-//W3C//DTD SVG 1.1//EN'  'http://www.w3.org/Graphics/SVG/1.1/DTD/svg11.dtd'><svg enable-background="new 0 0 24 24" height="24px" id="Layer_1" version="1.1" viewBox="0 0 24 24" width="24px" xml:space="preserve" xmlns="http://www.w3.org/2000/svg" xmlns:xlink="http://www.w3.org/1999/xlink"><g><path d="M8,6H7V0H6v6H5V0H3v7c0,0.6,0.4,1,1,1v15c0,0.6,0.4,1,1,1h3c0.6,0,1-0.4,1-1V8c0.6,0,1-0.4,1-1V0H8V6z M7,22H6V8h1V22z" fill="#000000cc"/><path d="M15,0c-0.6,0-1,0.4-1,1v11v11c0,0.5,0.4,1,1,1h3c0.6,0,1-0.5,1-1V12c0,0,2-2,2-5C21,2,15,0,15,0z M17,22h-1v-9h1V22z    M17,12h-1V2.7c0,0,3,1.3,3,4.3S17,12,17,12z" fill="#000000cc"/></g></svg>